<?xml version="1.0" encoding="UTF-8" standalone="no"?>
<svg
   width="311.899"
   height="291.707"
   viewBox="0 0 311.899 291.707"
   version="1.1"
   id="svg7"
   sodipodi:docname="logo.svg"
   xml:space="preserve"
   inkscape:version="1.2.2 (732a01da63, 2022-12-09)"
   xmlns:inkscape="http://www.inkscape.org/namespaces/inkscape"
   xmlns:sodipodi="http://sodipodi.sourceforge.net/DTD/sodipodi-0.dtd"
   xmlns="http://www.w3.org/2000/svg"
   xmlns:svg="http://www.w3.org/2000/svg"><defs
     id="defs11" /><sodipodi:namedview
     id="namedview9"
     pagecolor="#ffffff"
     bordercolor="#000000"
     borderopacity="0.25"
     inkscape:showpageshadow="2"
     inkscape:pageopacity="0.0"
     inkscape:pagecheckerboard="0"
     inkscape:deskcolor="#d1d1d1"
     showgrid="false"
     inkscape:zoom="1.4209464"
     inkscape:cx="79.524466"
     inkscape:cy="217.46071"
     inkscape:window-width="1920"
     inkscape:window-height="1009"
     inkscape:window-x="-8"
     inkscape:window-y="-8"
     inkscape:window-maximized="1"
     inkscape:current-layer="svg7" /><g
     style="fill:none"
     id="g294"
     transform="translate(395.93071,86.037708)"><g
       mask="url(#mask0_418_1573)"
       id="g190"
       style="fill:#ffffff;fill-opacity:1"
       transform="matrix(3.7244281,0,0,3.7244281,-613.19208,-107.07926)"><path
         d="m 99.4631,5.98096 c -21.6399,0 -39.1809,17.40444 -39.1809,38.87574 0,21.4721 17.541,38.8766 39.1809,38.8766 21.6399,0 39.1819,-17.4036 39.1819,-38.8766 0,-21.4713 -17.542,-38.87574 -39.1819,-38.87574 z m 0,74.32204 c -19.731,0 -35.7235,-15.8698 -35.7235,-35.4463 0,-19.5756 15.9925,-35.4446 35.7235,-35.4446 19.7309,0 35.7259,15.869 35.7259,35.4446 0,19.5765 -15.995,35.4463 -35.7259,35.4463 z"
         fill="#000000"
         id="path174"
         style="fill:#ffffff;fill-opacity:1" /><path
         d="m 113.57,73.3052 c -4.06,-1.3749 -8.771,-2.1392 -14.1928,-2.1392 -5.3402,0 -9.9883,0.7419 -14.0071,2.0813 4.2756,2.0779 9.0778,3.2455 14.1585,3.2455 5.0334,0 9.7954,-1.1486 14.0414,-3.1876 z"
         fill="#000000"
         id="path176"
         style="fill:#ffffff;fill-opacity:1" /><path
         d="m 81.9763,71.3318 c 5.2591,-1.8758 11.1642,-2.932 17.4008,-2.932 6.3119,0 12.2809,1.0839 17.5899,3.0028 1.428,-0.9128 2.78,-1.931 4.041,-3.0511 -6.436,-2.5667 -13.801,-4.0236 -21.6317,-4.0236 -7.7478,0 -15.0368,1.4301 -21.4232,3.9441 1.2561,1.1236 2.6018,2.1435 4.0232,3.0598 z"
         fill="#000000"
         id="path178"
         style="fill:#ffffff;fill-opacity:1" /><path
         d="m 99.3769,48.053 c -10.4295,0 -21.2316,2.5891 -30.3085,6.9392 0.5248,1.4975 1.1559,2.944 1.8871,4.3319 8.4432,-4.1091 18.6995,-6.5394 28.4214,-6.5394 9.8151,0 20.1701,2.4804 28.6571,6.6594 0.74,-1.3844 1.378,-2.8284 1.909,-4.325 C 120.811,50.693 109.906,48.053 99.3769,48.053 Z"
         fill="#000000"
         id="path180"
         style="fill:#ffffff;fill-opacity:1" /><path
         d="m 89.5301,58.9827 c 0,-0.9784 1.7905,-1.8386 4.4906,-2.3308 -7.5841,0.6028 -14.9428,2.5252 -21.4162,5.4451 0.8626,1.2945 1.8149,2.5235 2.8507,3.6781 5.3566,-2.381 11.394,-4.0046 17.6089,-4.6557 -2.1578,-0.5096 -3.534,-1.2774 -3.534,-2.1367 z"
         fill="#000000"
         id="path182"
         style="fill:#ffffff;fill-opacity:1" /><path
         d="m 104.993,56.7212 c 2.496,0.5043 4.13,1.3291 4.13,2.2618 0,0.8783 -1.432,1.6582 -3.668,2.166 6.347,0.6935 12.487,2.4051 17.911,4.8898 1.053,-1.1435 2.021,-2.3664 2.899,-3.6531 -6.405,-2.9804 -13.713,-4.9728 -21.272,-5.6645 z"
         fill="#000000"
         id="path184"
         style="fill:#ffffff;fill-opacity:1" /><path
         d="m 67.3984,47.0478 c 0.1289,1.6365 0.3822,3.2351 0.7504,4.7922 9.4503,-4.5159 20.9949,-7.219 31.2286,-7.219 10.2976,0 21.9876,2.6617 31.5446,7.1533 0.364,-1.5502 0.613,-3.1427 0.739,-4.7689 -9.95,-4.4467 -21.638,-7.0894 -32.2836,-7.0894 -10.5819,-8e-4 -22.1361,2.6686 -31.979,7.1318 z"
         fill="#000000"
         id="path186"
         style="fill:#ffffff;fill-opacity:1" /><path
         d="m 100.528,58.546 c 0,0 -0.373,0.5613 -1.1296,0.5613 -0.7573,0 -1.0654,-0.5613 -1.0654,-0.5613 V 12.5601 h 0.1079 l 12.0791,12.1925 -9.992,-0.0293 z"
         fill="#000000"
         id="path188"
         style="fill:#ffffff;fill-opacity:1" /></g></g></svg>
