<svg width="240" height="65" viewBox="0 0 240 65" fill="none" xmlns="http://www.w3.org/2000/svg">
<path d="M32.4067 0C14.5082 0 0 14.4114 0 32.1901C0 49.9696 14.5082 64.381 32.4067 64.381C50.3051 64.381 64.814 49.9703 64.814 32.1901C64.814 14.4114 50.3051 0 32.4067 0ZM32.4067 61.5406C16.0871 61.5406 2.8596 48.3999 2.8596 32.1901C2.8596 15.981 16.0871 2.84108 32.4067 2.84108C48.7262 2.84108 61.9559 15.981 61.9559 32.1901C61.9559 48.3999 48.7262 61.5406 32.4067 61.5406Z" fill="black"/>
<path d="M44.074 55.7461C40.7162 54.6077 36.8199 53.9749 32.3354 53.9749C27.9186 53.9749 24.0741 54.5891 20.7501 55.6982C24.2865 57.4188 28.2584 58.3856 32.4607 58.3856C36.6241 58.3856 40.5621 57.4345 44.074 55.7461Z" fill="black"/>
<path d="M17.9432 54.1122C22.293 52.559 27.1771 51.6844 32.3355 51.6844C37.5558 51.6844 42.4931 52.5819 46.884 54.1708C48.0654 53.415 49.1835 52.5719 50.2267 51.6444C44.9035 49.5191 38.8113 48.3127 32.3348 48.3127C25.9266 48.3127 19.8978 49.4969 14.6156 51.5786C15.6545 52.5089 16.7675 53.3535 17.9432 54.1122Z" fill="black"/>
<path d="M32.3353 34.8367C23.7089 34.8367 14.7745 36.9805 7.26697 40.5825C7.70109 41.8225 8.22305 43.0202 8.8278 44.1694C15.8112 40.767 24.2943 38.7547 32.3353 38.7547C40.4533 38.7547 49.0177 40.8085 56.0378 44.2688C56.6498 43.1225 57.1775 41.9268 57.6167 40.6876C50.0638 37.0227 41.0437 34.8367 32.3353 34.8367Z" fill="black"/>
<path d="M24.1906 43.8868C24.1906 43.0766 25.6716 42.3644 27.9048 41.9568C21.632 42.4559 15.5456 44.0477 10.1914 46.4655C10.9049 47.5374 11.6925 48.555 12.5492 49.5111C16.9797 47.5396 21.9732 46.1952 27.1136 45.656C25.3289 45.2341 24.1906 44.5983 24.1906 43.8868Z" fill="black"/>
<path d="M36.9805 42.0142C39.0445 42.4318 40.3966 43.1147 40.3966 43.887C40.3966 44.6142 39.2116 45.26 37.3627 45.6805C42.6118 46.2547 47.6903 47.672 52.177 49.7293C53.0474 48.7826 53.8486 47.77 54.5743 46.7045C49.277 44.2367 43.2324 42.587 36.9805 42.0142Z" fill="black"/>
<path d="M5.8855 34.0044C5.99205 35.3595 6.20155 36.6831 6.50609 37.9725C14.3225 34.2332 23.871 31.995 32.3354 31.995C40.8523 31.995 50.521 34.1989 58.426 37.9181C58.7269 36.6345 58.9328 35.3159 59.0372 33.9693C50.8076 30.2873 41.1402 28.0991 32.3354 28.0991C23.5831 28.0984 14.0266 30.3088 5.8855 34.0044Z" fill="black"/>
<path d="M33.2879 43.525C33.2879 43.525 32.979 43.9898 32.3534 43.9898C31.727 43.9898 31.4722 43.525 31.4722 43.525V5.44751H31.5614L41.552 15.5433L33.2879 15.519V43.525Z" fill="black"/>
<path d="M84.8327 24.2461H84.7513L80.2733 17.5857V27.7401H77.7787V13.5239H80.4576L84.8132 20.2466L89.1674 13.5239H91.8463V27.7401H89.3517V17.5442L84.8327 24.2461Z" fill="black"/>
<path d="M101.701 17.0166H104.196V27.7402H101.701V26.0576C101.348 26.5767 100.907 27.0244 100.376 27.3991C99.8455 27.7753 99.1659 27.9633 98.3372 27.9633C97.1141 27.9633 96.1688 27.5908 95.5028 26.8463C94.8362 26.1012 94.5035 25.0993 94.5035 23.8401V17.0166H96.9981V23.0949C96.9981 23.933 97.1968 24.578 97.5957 25.0307C97.9945 25.4834 98.5582 25.7093 99.289 25.7093C100.005 25.7093 100.586 25.4762 101.032 25.0092C101.478 24.5444 101.701 23.8916 101.701 23.0549V17.0166Z" fill="black"/>
<path d="M109.185 27.7402H106.69V17.0166H109.185V18.6992C109.361 18.4396 109.555 18.1965 109.766 17.9719C109.976 17.7467 110.222 17.545 110.5 17.3669C110.779 17.1889 111.085 17.0495 111.417 16.9472C111.751 16.8442 112.127 16.7935 112.549 16.7935C113.772 16.7935 114.717 17.166 115.383 17.9104C116.049 18.6548 116.383 19.6574 116.383 20.916V27.7402H113.888V21.6618C113.888 20.8237 113.689 20.1787 113.29 19.7261C112.892 19.2734 112.326 19.0474 111.596 19.0474C110.881 19.0474 110.3 19.2806 109.853 19.7475C109.408 20.2138 109.185 20.8652 109.185 21.7019V27.7402Z" fill="black"/>
<path d="M118.794 15.3719V13.0364H121.473V15.3719H118.794ZM118.896 27.7402V17.0166H121.39V27.7402H118.896Z" fill="black"/>
<path d="M131.594 27.4248C130.912 27.7974 130.047 27.9847 128.997 27.9847C128.193 27.9847 127.45 27.8381 126.767 27.5478C126.085 27.2567 125.493 26.8563 124.992 26.3493C124.491 25.8409 124.099 25.2531 123.817 24.5823C123.535 23.9115 123.394 23.1914 123.394 22.4191C123.394 21.6475 123.535 20.9231 123.817 20.2466C124.099 19.5702 124.491 18.9738 124.992 18.4596C125.493 17.9448 126.089 17.5386 126.778 17.2404C127.466 16.9429 128.213 16.7935 129.017 16.7935C130.039 16.7935 130.888 16.9629 131.562 17.3012C132.238 17.6401 132.827 18.0871 133.331 18.6413L131.797 20.2867C131.416 19.8941 131.01 19.573 130.581 19.3227C130.151 19.0717 129.623 18.9466 128.997 18.9466C128.547 18.9466 128.131 19.0381 127.75 19.2212C127.367 19.4043 127.041 19.6517 126.768 19.9628C126.496 20.2745 126.28 20.6357 126.123 21.049C125.967 21.4623 125.889 21.9057 125.889 22.3791C125.889 22.8668 125.967 23.3201 126.123 23.7399C126.28 24.1597 126.502 24.5258 126.789 24.8369C127.074 25.1479 127.415 25.3939 127.811 25.5784C128.206 25.76 128.642 25.8516 129.119 25.8516C129.705 25.8516 130.219 25.7264 130.663 25.4755C131.106 25.2259 131.526 24.9041 131.92 24.5115L133.413 25.9739C132.881 26.5695 132.275 27.0529 131.594 27.4248Z" fill="black"/>
<path d="M135.09 15.3719V13.0364H137.768V15.3719H135.09ZM135.192 27.7402V17.0166H137.687V27.7402H135.192Z" fill="black"/>
<path d="M151.028 24.7546C150.749 25.4454 150.374 26.0311 149.903 26.5109C149.434 26.9929 148.895 27.3547 148.288 27.5979C147.681 27.8424 147.058 27.964 146.416 27.964C145.531 27.964 144.794 27.7738 144.209 27.3955C143.623 27.0165 143.139 26.576 142.756 26.0754L142.778 30.9903H140.282V17.0166H142.778V18.8043C143.172 18.2351 143.662 17.7581 144.246 17.372C144.83 16.9865 145.558 16.7935 146.428 16.7935C147.068 16.7935 147.686 16.915 148.285 17.1596C148.883 17.4027 149.416 17.7653 149.886 18.2458C150.355 18.7263 150.732 19.312 151.017 20.0035C151.303 20.6936 151.447 21.4859 151.447 22.3791C151.447 23.2722 151.308 24.0639 151.028 24.7546ZM148.708 20.9467C148.544 20.5198 148.323 20.158 148.043 19.8598C147.763 19.5623 147.436 19.332 147.061 19.169C146.686 19.006 146.289 18.9252 145.866 18.9252C145.443 18.9252 145.041 19.006 144.66 19.169C144.278 19.332 143.944 19.5652 143.658 19.8691C143.372 20.1744 143.142 20.537 142.972 20.956C142.802 21.3765 142.717 21.8499 142.717 22.3776C142.717 22.9054 142.802 23.3788 142.972 23.7993C143.142 24.2197 143.372 24.5816 143.658 24.8862C143.943 25.1908 144.277 25.4247 144.66 25.5863C145.041 25.7493 145.443 25.8301 145.866 25.8301C146.289 25.8301 146.687 25.7493 147.061 25.5863C147.436 25.424 147.764 25.193 148.043 24.8962C148.323 24.598 148.544 24.2347 148.708 23.8093C148.872 23.3823 148.953 22.9047 148.953 22.3769C148.953 21.8492 148.871 21.3736 148.708 20.9467Z" fill="black"/>
<path d="M159.974 27.7402V26.4201C159.606 26.8527 159.135 27.2189 158.562 27.5163C157.99 27.8138 157.295 27.9633 156.477 27.9633C155.96 27.9633 155.468 27.8918 155.005 27.7495C154.542 27.6079 154.137 27.3976 153.788 27.1194C153.441 26.8427 153.162 26.498 152.95 26.0847C152.739 25.6714 152.634 25.1937 152.634 24.6531V24.6116C152.634 24.0302 152.743 23.5218 152.961 23.0884C153.179 22.6551 153.483 22.2968 153.871 22.0115C154.26 21.7283 154.724 21.5145 155.262 21.3722C155.8 21.2299 156.384 21.1584 157.011 21.1584C157.665 21.1584 158.22 21.1999 158.676 21.2807C159.133 21.3615 159.572 21.4709 159.995 21.6053V21.3422C159.995 20.5971 159.767 20.0286 159.31 19.6353C158.853 19.2427 158.196 19.046 157.338 19.046C156.724 19.046 156.179 19.1075 155.702 19.2291C155.225 19.3506 154.741 19.5137 154.25 19.7168L153.575 17.7474C154.175 17.4771 154.788 17.2597 155.416 17.0974C156.042 16.935 156.799 16.8535 157.685 16.8535C159.292 16.8535 160.486 17.2497 161.263 18.0413C162.04 18.8336 162.428 19.947 162.428 21.3822V27.7394H159.974V27.7402ZM160.035 23.1914C159.721 23.0691 159.35 22.9676 158.92 22.8861C158.49 22.8053 158.038 22.7645 157.561 22.7645C156.783 22.7645 156.177 22.9133 155.741 23.2107C155.305 23.5097 155.087 23.9358 155.087 24.4908V24.5315C155.087 25.0464 155.287 25.439 155.69 25.7093C156.092 25.9796 156.586 26.1147 157.172 26.1147C157.581 26.1147 157.96 26.0611 158.308 25.9524C158.655 25.8444 158.958 25.6914 159.218 25.4948C159.476 25.2995 159.678 25.0621 159.821 24.7839C159.964 24.5065 160.035 24.199 160.035 23.86L160.035 23.1914Z" fill="black"/>
<path d="M164.901 27.7402V12.9148H167.396V27.7402H164.901Z" fill="black"/>
<path d="M170.033 15.3719V13.0364H172.712V15.3719H170.033ZM170.135 27.7402V17.0166H172.63V27.7402H170.135Z" fill="black"/>
<path d="M183.344 27.7402V25.9531C182.95 26.5081 182.456 26.9815 181.865 27.3748C181.273 27.7674 180.542 27.9633 179.672 27.9633C179.033 27.9633 178.414 27.8417 177.815 27.5971C177.218 27.354 176.687 26.9922 176.225 26.5102C175.762 26.0304 175.389 25.4447 175.102 24.7539C174.817 24.0631 174.674 23.2715 174.674 22.3777C174.674 21.4845 174.813 20.6922 175.092 20.0021C175.37 19.3106 175.741 18.7257 176.204 18.2444C176.667 17.7646 177.201 17.402 177.805 17.1582C178.411 16.9143 179.033 16.792 179.672 16.792C180.556 16.792 181.289 16.9815 181.875 17.3605C182.46 17.7395 182.95 18.1793 183.344 18.6813V12.9133H185.839V27.7388H183.344V27.7402ZM183.13 20.9568C182.96 20.5377 182.732 20.1751 182.448 19.8698C182.163 19.5652 181.829 19.3321 181.449 19.1697C181.068 19.0067 180.675 18.9259 180.266 18.9259C179.844 18.9259 179.448 19.0038 179.074 19.159C178.7 19.3156 178.371 19.5416 178.086 19.8398C177.801 20.138 177.576 20.4998 177.412 20.9267C177.251 21.3536 177.168 21.837 177.168 22.3784C177.168 22.9061 177.251 23.3838 177.412 23.8107C177.576 24.2362 177.801 24.5995 178.086 24.8977C178.371 25.1944 178.7 25.4254 179.074 25.5877C179.448 25.7508 179.844 25.8316 180.266 25.8316C180.675 25.8316 181.068 25.7508 181.449 25.5877C181.829 25.4254 182.162 25.1916 182.448 24.8876C182.733 24.583 182.96 24.2212 183.13 23.8007C183.3 23.3802 183.385 22.9068 183.385 22.3791C183.385 21.8513 183.3 21.3772 183.13 20.9568Z" fill="black"/>
<path d="M194.917 27.7402V26.4201C194.549 26.8527 194.078 27.2189 193.506 27.5163C192.934 27.8138 192.238 27.9633 191.42 27.9633C190.902 27.9633 190.412 27.8918 189.948 27.7495C189.485 27.6079 189.079 27.3976 188.731 27.1194C188.385 26.8427 188.105 26.498 187.895 26.0847C187.683 25.6714 187.577 25.1937 187.577 24.6531V24.6116C187.577 24.0302 187.686 23.5218 187.905 23.0884C188.123 22.6558 188.426 22.2968 188.815 22.0115C189.203 21.7283 189.667 21.5145 190.206 21.3722C190.744 21.2299 191.327 21.1584 191.954 21.1584C192.608 21.1584 193.163 21.1999 193.62 21.2807C194.076 21.3615 194.516 21.4709 194.939 21.6053V21.3422C194.939 20.5971 194.711 20.0286 194.253 19.6353C193.797 19.2427 193.14 19.046 192.281 19.046C191.667 19.046 191.122 19.1075 190.646 19.2291C190.168 19.3506 189.685 19.5137 189.194 19.7168L188.518 17.7474C189.118 17.4771 189.732 17.2597 190.359 17.0974C190.986 16.935 191.742 16.8535 192.628 16.8535C194.237 16.8535 195.43 17.2497 196.206 18.0413C196.983 18.8336 197.372 19.947 197.372 21.3822V27.7394H194.917V27.7402ZM194.978 23.1914C194.664 23.0691 194.293 22.9676 193.864 22.8861C193.434 22.8053 192.981 22.7645 192.503 22.7645C191.727 22.7645 191.12 22.9133 190.685 23.2107C190.249 23.5097 190.03 23.9358 190.03 24.4908V24.5315C190.03 25.0464 190.231 25.439 190.634 25.7093C191.036 25.9796 191.53 26.1147 192.117 26.1147C192.525 26.1147 192.904 26.0611 193.251 25.9524C193.599 25.8444 193.901 25.6914 194.161 25.4948C194.42 25.2995 194.621 25.0621 194.765 24.7839C194.907 24.5065 194.979 24.199 194.979 23.86V23.1914H194.978Z" fill="black"/>
<path d="M207.818 27.7402V25.9531C207.424 26.5081 206.931 26.9815 206.339 27.3748C205.748 27.7674 205.017 27.9633 204.147 27.9633C203.507 27.9633 202.889 27.8417 202.291 27.5971C201.692 27.354 201.162 26.9922 200.699 26.5102C200.237 26.0304 199.863 25.4447 199.577 24.7539C199.291 24.0631 199.149 23.2715 199.149 22.3777C199.149 21.4845 199.288 20.6922 199.567 20.0021C199.845 19.3106 200.216 18.7257 200.68 18.2444C201.142 17.7646 201.675 17.402 202.281 17.1582C202.886 16.9143 203.507 16.792 204.147 16.792C205.031 16.792 205.765 16.9815 206.35 17.3605C206.935 17.7395 207.424 18.1793 207.818 18.6813V12.9133H210.313V27.7388H207.818V27.7402ZM207.605 20.9568C207.435 20.5377 207.207 20.1751 206.922 19.8698C206.637 19.5652 206.304 19.3321 205.924 19.1697C205.543 19.0067 205.149 18.9259 204.741 18.9259C204.32 18.9259 203.923 19.0038 203.549 19.159C203.175 19.3156 202.845 19.5416 202.561 19.8398C202.276 20.138 202.051 20.4998 201.888 20.9267C201.725 21.3536 201.644 21.837 201.644 22.3784C201.644 22.9061 201.725 23.3838 201.888 23.8107C202.051 24.2362 202.276 24.5995 202.561 24.8977C202.846 25.1944 203.176 25.4254 203.549 25.5877C203.924 25.7508 204.32 25.8316 204.741 25.8316C205.148 25.8316 205.542 25.7508 205.924 25.5877C206.303 25.4254 206.637 25.1916 206.922 24.8876C207.207 24.583 207.435 24.2212 207.605 23.8007C207.775 23.3802 207.859 22.9068 207.859 22.3791C207.859 21.8513 207.775 21.3772 207.605 20.9568Z" fill="black"/>
<path d="M224.996 27.7402V25.9531C224.6 26.5081 224.108 26.9815 223.516 27.3748C222.924 27.7674 222.194 27.9633 221.323 27.9633C220.684 27.9633 220.065 27.8417 219.467 27.5971C218.868 27.354 218.338 26.9922 217.876 26.5102C217.413 26.0304 217.039 25.4447 216.754 24.7539C216.468 24.0631 216.325 23.2715 216.325 22.3777C216.325 21.4845 216.464 20.6922 216.744 20.0021C217.022 19.3106 217.393 18.7257 217.856 18.2444C218.317 17.7646 218.852 17.402 219.457 17.1582C220.063 16.9143 220.684 16.792 221.323 16.792C222.207 16.792 222.942 16.9815 223.526 17.3605C224.111 17.7395 224.6 18.1793 224.996 18.6813V12.9133H227.489V27.7388H224.996V27.7402ZM224.781 20.9568C224.611 20.5377 224.383 20.1751 224.099 19.8698C223.813 19.5652 223.481 19.3321 223.1 19.1697C222.719 19.0067 222.326 18.9259 221.917 18.9259C221.497 18.9259 221.099 19.0038 220.726 19.159C220.35 19.3156 220.022 19.5416 219.737 19.8398C219.452 20.138 219.227 20.4998 219.064 20.9267C218.901 21.3536 218.82 21.837 218.82 22.3784C218.82 22.9061 218.901 23.3838 219.064 23.8107C219.227 24.2362 219.452 24.5995 219.737 24.8977C220.022 25.1944 220.351 25.4254 220.726 25.5877C221.099 25.7508 221.497 25.8316 221.917 25.8316C222.325 25.8316 222.718 25.7508 223.1 25.5877C223.48 25.4254 223.813 25.1916 224.099 24.8876C224.384 24.583 224.611 24.2212 224.781 23.8007C224.95 23.3802 225.036 22.9068 225.036 22.3791C225.036 21.8513 224.95 21.3772 224.781 20.9568Z" fill="black"/>
<path d="M232.908 25.2724C233.466 25.7401 234.148 25.9732 234.953 25.9732C235.566 25.9732 236.098 25.8645 236.548 25.6485C236.997 25.4312 237.44 25.1136 237.877 24.6939L239.33 25.9732C238.81 26.5824 238.195 27.0694 237.479 27.4356C236.764 27.8017 235.908 27.9848 234.913 27.9848C234.136 27.9848 233.41 27.8489 232.736 27.5772C232.06 27.3076 231.474 26.9278 230.978 26.4402C230.48 25.9532 230.088 25.3689 229.802 24.6832C229.515 24.0002 229.371 23.2387 229.371 22.3999C229.371 21.6275 229.502 20.9032 229.761 20.2267C230.019 19.5495 230.384 18.9574 230.854 18.4489C231.325 17.9419 231.881 17.5393 232.521 17.2411C233.162 16.9436 233.87 16.7942 234.647 16.7942C235.506 16.7942 236.259 16.9501 236.908 17.2612C237.554 17.5737 238.093 17.9927 238.522 18.5204C238.952 19.0482 239.276 19.6653 239.494 20.369C239.711 21.0726 239.821 21.8113 239.821 22.5829C239.821 22.6909 239.817 22.8003 239.81 22.9076C239.803 23.0163 239.793 23.1314 239.78 23.253H231.846C231.995 24.1311 232.348 24.8054 232.908 25.2724ZM237.366 21.6268C237.324 21.2342 237.235 20.866 237.099 20.5199C236.963 20.1752 236.78 19.877 236.547 19.6267C236.315 19.3757 236.039 19.1769 235.719 19.0275C235.399 18.878 235.034 18.8036 234.625 18.8036C233.862 18.8036 233.231 19.0646 232.733 19.5859C232.236 20.1073 231.933 20.7873 231.823 21.6268H237.366Z" fill="black"/>
<path d="M91.9953 32.7273H95.5259L87.8002 51.3198H84.9334L77.207 32.7273H80.8182L86.4201 46.9155L91.9953 32.7273Z" fill="black"/>
<path d="M97.6245 35.1272V32.0938H101.103V35.1272H97.6245ZM97.757 51.1876V37.2625H100.997V51.1876H97.757Z" fill="black"/>
<path d="M105.111 51.1874V31.9355H108.351V51.1874H105.111Z" fill="black"/>
<path d="M112.466 51.1874V31.9355H115.705V51.1874H112.466Z" fill="black"/>
<path d="M128.21 51.1876V49.4735C127.732 50.0363 127.12 50.5118 126.378 50.898C125.635 51.2841 124.732 51.4772 123.669 51.4772C122.996 51.4772 122.36 51.3857 121.758 51.2004C121.156 51.016 120.63 50.7435 120.179 50.3831C119.727 50.0227 119.364 49.5743 119.09 49.038C118.815 48.5017 118.678 47.8824 118.678 47.1787V47.1258C118.678 46.37 118.82 45.7106 119.103 45.1479C119.387 44.5851 119.781 44.1196 120.285 43.7506C120.789 43.3801 121.391 43.1041 122.09 42.9189C122.79 42.7344 123.546 42.6422 124.361 42.6422C125.21 42.6422 125.931 42.6951 126.524 42.8016C127.117 42.906 127.688 43.0476 128.237 43.2235V42.8803C128.237 41.9135 127.94 41.1748 127.348 40.6649C126.755 40.1551 125.901 39.9005 124.785 39.9005C123.989 39.9005 123.28 39.9791 122.662 40.1379C122.042 40.2966 121.414 40.5069 120.776 40.7708L119.9 38.2128C120.678 37.8617 121.475 37.58 122.29 37.369C123.104 37.1574 124.086 37.0522 125.236 37.0522C127.325 37.0522 128.874 37.5671 129.883 38.5954C130.892 39.6237 131.397 41.0704 131.397 42.9332V51.1876H128.21ZM128.29 45.2794C127.882 45.1214 127.4 44.9905 126.842 44.884C126.285 44.7796 125.696 44.7259 125.077 44.7259C124.068 44.7259 123.28 44.9197 122.714 45.3066C122.147 45.6928 121.864 46.247 121.864 46.9678V47.02C121.864 47.6886 122.125 48.1978 122.647 48.5496C123.169 48.9014 123.81 49.0773 124.572 49.0773C125.103 49.0773 125.594 49.0065 126.046 48.8656C126.497 48.7262 126.891 48.5274 127.228 48.2728C127.564 48.0183 127.825 47.7108 128.011 47.3496C128.197 46.99 128.29 46.5895 128.29 46.1504L128.29 45.2794Z" fill="black"/>
<path d="M160.168 51.1875H156.717L154.832 46.731H146.043L144.131 51.1875H140.786L148.963 32.595H151.99L160.168 51.1875ZM150.424 36.4722L147.237 43.8563H153.636L150.424 36.4722Z" fill="black"/>
<path d="M162.929 51.1874V31.9355H166.169V51.1874H162.929Z" fill="black"/>
<path d="M170.284 51.1874V31.9355H173.522V51.1874H170.284Z" fill="black"/>
<path d="M181.275 47.9837C182.001 48.5902 182.886 48.8926 183.93 48.8926C184.726 48.8926 185.416 48.7525 186.002 48.4707C186.585 48.1897 187.16 47.7764 187.726 47.2315L189.611 48.8926C188.938 49.6842 188.138 50.3171 187.209 50.7912C186.279 51.2661 185.169 51.5042 183.876 51.5042C182.868 51.5042 181.925 51.3275 181.049 50.9764C180.172 50.6246 179.411 50.1319 178.765 49.4991C178.119 48.8662 177.611 48.1068 177.238 47.2186C176.867 46.3319 176.681 45.3429 176.681 44.2524C176.681 43.2505 176.849 42.3094 177.186 41.4306C177.522 40.5517 177.996 39.783 178.606 39.123C179.218 38.4629 179.938 37.9409 180.77 37.5541C181.602 37.1672 182.523 36.9734 183.531 36.9734C184.647 36.9734 185.624 37.1765 186.465 37.5805C187.305 37.9845 188.005 38.5294 188.562 39.2152C189.12 39.901 189.54 40.7012 189.824 41.6151C190.107 42.529 190.248 43.4872 190.248 44.4898C190.248 44.6307 190.244 44.7715 190.235 44.9117C190.226 45.0526 190.213 45.2013 190.195 45.3601H179.893C180.089 46.5014 180.549 47.3766 181.275 47.9837ZM187.063 43.2491C187.011 42.7385 186.895 42.2594 186.718 41.8118C186.541 41.3627 186.302 40.9765 186.002 40.6511C185.701 40.3265 185.342 40.0669 184.927 39.8731C184.51 39.6793 184.038 39.5835 183.505 39.5835C182.514 39.5835 181.696 39.9225 181.05 40.5989C180.404 41.2754 180.011 42.1593 179.868 43.2491H187.063Z" fill="black"/>
<path d="M196.489 51.1874H193.249V37.2623H196.489V39.4469C196.718 39.1101 196.969 38.7961 197.244 38.503C197.517 38.2105 197.834 37.9495 198.196 37.7178C198.558 37.4875 198.956 37.3059 199.387 37.1729C199.821 37.0384 200.309 36.9727 200.857 36.9727C202.446 36.9727 203.672 37.4568 204.536 38.4229C205.401 39.389 205.834 40.6912 205.834 42.3259V51.1874H202.595V43.2948C202.595 42.2072 202.336 41.3691 201.818 40.7813C201.301 40.1934 200.569 39.9003 199.62 39.9003C198.69 39.9003 197.936 40.2027 197.357 40.8084C196.777 41.4141 196.488 42.2601 196.488 43.347L196.489 51.1874Z" fill="black"/>
<path d="M220.012 51.1874V48.8662C219.5 49.5885 218.86 50.2027 218.091 50.7126C217.324 51.2225 216.375 51.4763 215.245 51.4763C214.415 51.4763 213.61 51.319 212.834 51.0029C212.057 50.6861 211.368 50.2156 210.767 49.5913C210.168 48.9678 209.682 48.2062 209.312 47.3102C208.941 46.4141 208.756 45.3858 208.756 44.2252C208.756 43.0646 208.937 42.0363 209.299 41.1403C209.66 40.2436 210.142 39.4827 210.743 38.8591C211.343 38.2356 212.036 37.765 212.822 37.4475C213.608 37.1322 214.416 36.9734 215.245 36.9734C216.393 36.9734 217.346 37.2201 218.106 37.7121C218.866 38.2041 219.501 38.7755 220.013 39.4255V31.9363H223.252V51.1874H220.012ZM219.734 42.3796C219.514 41.8339 219.218 41.3634 218.848 40.968C218.478 40.5725 218.046 40.2686 217.551 40.0591C217.057 39.8474 216.546 39.7423 216.017 39.7423C215.469 39.7423 214.953 39.8445 214.469 40.0455C213.983 40.2479 213.556 40.5425 213.186 40.9293C212.816 41.3162 212.524 41.786 212.312 42.3402C212.101 42.8944 211.995 43.5223 211.995 44.226C211.995 44.9117 212.101 45.531 212.312 46.0859C212.524 46.6394 212.815 47.1106 213.186 47.4968C213.556 47.8837 213.983 48.1826 214.469 48.3942C214.954 48.6052 215.47 48.7096 216.017 48.7096C216.546 48.7096 217.057 48.6052 217.551 48.3942C218.046 48.1826 218.478 47.8787 218.848 47.4839C219.219 47.0878 219.515 46.6179 219.734 46.073C219.955 45.5281 220.065 44.9124 220.065 44.2266C220.065 43.5409 219.955 42.9238 219.734 42.3796Z" fill="black"/>
<path d="M230.844 47.9837C231.571 48.5902 232.455 48.8926 233.5 48.8926C234.296 48.8926 234.986 48.7525 235.571 48.4707C236.155 48.1897 236.73 47.7764 237.297 47.2315L239.181 48.8926C238.507 49.6842 237.708 50.3171 236.779 50.7912C235.849 51.2661 234.738 51.5042 233.446 51.5042C232.438 51.5042 231.495 51.3275 230.618 50.9764C229.742 50.6246 228.982 50.1319 228.335 49.4991C227.689 48.8662 227.18 48.1068 226.808 47.2186C226.436 46.3319 226.25 45.3429 226.25 44.2524C226.25 43.2505 226.419 42.3094 226.755 41.4306C227.092 40.5517 227.565 39.783 228.176 39.123C228.787 38.4629 229.508 37.9409 230.34 37.5541C231.171 37.1672 232.093 36.9734 233.101 36.9734C234.217 36.9734 235.194 37.1765 236.035 37.5805C236.875 37.9845 237.575 38.5294 238.132 39.2152C238.69 39.901 239.109 40.7012 239.394 41.6151C239.677 42.529 239.818 43.4872 239.818 44.4898C239.818 44.6307 239.814 44.7715 239.806 44.9117C239.795 45.0526 239.782 45.2013 239.765 45.3601H229.463C229.659 46.5014 230.119 47.3766 230.844 47.9837ZM236.633 43.2491C236.58 42.7385 236.466 42.2594 236.288 41.8118C236.111 41.3627 235.872 40.9765 235.572 40.6511C235.271 40.3265 234.912 40.0669 234.496 39.8731C234.08 39.6793 233.607 39.5835 233.076 39.5835C232.084 39.5835 231.266 39.9225 230.62 40.5989C229.974 41.2754 229.58 42.1593 229.438 43.2491H236.633Z" fill="black"/>
</svg>

