<?xml version="1.0" encoding="UTF-8"?>
<svg xmlns="http://www.w3.org/2000/svg" version="1.1" viewBox="0 0 207 178">
  <defs>
    <style>
      .cls-1 {
        fill: #707070;
      }

      .cls-2 {
        fill: #fbd209;
      }
    </style>
  </defs>
  <!-- Generator: Adobe Illustrator 28.6.0, SVG Export Plug-In . SVG Version: 1.2.0 Build 709)  -->
  <g>
    <g id="Layer_1">
      <path class="cls-2" d="M40.4,130.2c0-5.4,0-10.8,0-16.1,0-1.6.5-2.6,1.9-3.4,10.6-6.1,22.1-9.1,34.2-9.2,3.1,0,6.4,1.5,9.4,2.7,2,.9,3.8,2.4,5.5,3.9,7,6.5,15.2,10.5,24.5,12.6,4.4,1,8.8,2.5,13.1,4,4.9,1.6,6.8,6.5,4.3,10.5-1.7,2.6-4.5,3.7-8,2.8-12.3-3.1-24.5-6.2-36.7-9.4-2-.5-3.7-.6-4.3,1.7-.6,2.3,1.1,3.1,3,3.6,12.3,3.1,24.7,6.3,37,9.5,4.7,1.2,8.6-.1,12.1-3.3.8-.7,2-1.4,3-1.3,10.2.8,19.7-1.9,28.9-5.8,7.9-3.3,15.8-6.3,23.8-9.4,3.9-1.5,7.7-.9,10,1.7,3.6,4,2.4,10.1-2.8,12.6-12.5,6.2-25.3,12-37.7,18.4-9.2,4.7-19.4,5.7-29.2,7.9-6.8,1.6-13.7,2.9-20.6,4.1-2,.3-4.2.3-6.1-.3-21-5.9-41.9-12-62.8-17.9-1.9-.5-2.5-1.4-2.5-3.4.1-5.5,0-10.9,0-16.4,0,0,0,0,0,0Z"/>
      <path class="cls-1" d="M122.3,19.2c6.8,6,13.7,12,20.6,18.1,10.7,9.3,21.3,18.7,32,28,1.3,1.2,1.9,2.3,1.9,4.1,0,17.3,0,34.6,0,52,0,2-.7,2.9-2.5,3.5-6.8,2.4-13.6,5.1-20.5,7.3-3,.9-6.3.7-9.9,1.1,0-1.5,0-2.6,0-3.6,0-16.7,0-33.4,0-50.1,0-10.8-8-19.4-18.9-20.5-11.7-1.2-21.9,5.5-24.1,15.9-.3,1.6-.4,3.2-.4,4.8,0,9.2,0,18.5,0,27.9-5.1-3.4-9.9-6.9-15-9.8-5.4-3.1-11.5-1.9-17.6-1.4,0-.8-.2-1.4-.2-2.1,0-8.5,0-17.1,0-25.6,0-1,.5-2.3,1.2-3,17.5-15.4,35-30.8,52.6-46.2.2-.2.5-.3.9-.5Z"/>
      <path class="cls-1" d="M19.9,175.9H1.5v-92.8h18.4v92.8Z"/>
      <path class="cls-1" d="M138.4,126.1c-2.9-5.1-7.3-6.5-11.8-7.8-6.3-1.8-12.5-3.9-18.8-5.7-1.6-.5-2.1-1.2-2.1-2.8,0-9.9,0-19.7,0-29.6,0-8,4.2-13.4,11.9-15.4,9.4-2.4,19,3.1,20.6,11.9.1.7.2,1.4.2,2.1,0,15.1,0,30.1,0,45.2,0,.4,0,.8-.1,2.1Z"/>
      <path class="cls-1" d="M122.2,1.9c6.9,6,13.7,12,20.5,18,16.1,14.1,32.3,28.3,48.4,42.4,1.4,1.3,3,2.5,2.3,4.7-1,3.1-3.9,3.9-6.6,1.6-7.8-6.7-15.5-13.6-23.3-20.4-12.8-11.2-25.6-22.5-38.4-33.7-2.5-2.2-3.2-2.2-5.7,0-20.6,18-41.2,36.1-61.7,54.1-2.4,2.1-4.8,1.8-6.2-.8-1.2-2.2,0-3.7,1.5-5.1,8.7-7.6,17.4-15.2,26.1-22.9,13.9-12.2,27.8-24.4,41.7-36.5.5-.4,1-.8,1.6-1.3Z"/>
      <path class="cls-1" d="M34.8,165.4h-9.1v-71.7h9.1v71.7Z"/>
      <path class="cls-1" d="M168.1,7.2v27.9c-4.2-3.6-7.8-7.1-11.8-10.2-2.7-2.1-4-4.5-3.6-7.9.3-3.2,0-6.4,0-9.7h15.4Z"/>
    </g>
  </g>
</svg>