<svg width="65" height="65" viewBox="0 0 65 65" fill="none" xmlns="http://www.w3.org/2000/svg">
<path d="M32.4066 0C14.5082 0 0 14.4113 0 32.1901C0 49.9696 14.5082 64.381 32.4066 64.381C50.3051 64.381 64.814 49.9703 64.814 32.1901C64.814 14.4113 50.3051 0 32.4066 0ZM32.4066 61.5406C16.0871 61.5406 2.8596 48.3999 2.8596 32.1901C2.8596 15.981 16.0871 2.84108 32.4066 2.84108C48.7262 2.84108 61.9559 15.981 61.9559 32.1901C61.9559 48.3999 48.7262 61.5406 32.4066 61.5406Z" fill="black"/>
<path d="M44.074 55.7461C40.7162 54.6077 36.8199 53.9749 32.3354 53.9749C27.9186 53.9749 24.0741 54.5891 20.7501 55.6982C24.2865 57.4188 28.2584 58.3856 32.4607 58.3856C36.6241 58.3856 40.5621 57.4345 44.074 55.7461Z" fill="black"/>
<path d="M17.9432 54.1122C22.293 52.559 27.1771 51.6844 32.3355 51.6844C37.5558 51.6844 42.4931 52.5819 46.884 54.1708C48.0654 53.415 49.1835 52.5719 50.2267 51.6444C44.9035 49.5191 38.8113 48.3127 32.3348 48.3127C25.9266 48.3127 19.8978 49.4969 14.6156 51.5786C15.6545 52.5089 16.7675 53.3535 17.9432 54.1122Z" fill="black"/>
<path d="M32.3353 34.8367C23.7089 34.8367 14.7745 36.9805 7.26697 40.5825C7.70109 41.8225 8.22305 43.0202 8.8278 44.1694C15.8112 40.767 24.2943 38.7547 32.3353 38.7547C40.4533 38.7547 49.0177 40.8085 56.0378 44.2688C56.6498 43.1225 57.1775 41.9268 57.6167 40.6876C50.0638 37.0227 41.0437 34.8367 32.3353 34.8367Z" fill="black"/>
<path d="M24.1906 43.8868C24.1906 43.0766 25.6716 42.3644 27.9048 41.9568C21.632 42.4559 15.5456 44.0477 10.1914 46.4655C10.9049 47.5374 11.6925 48.555 12.5492 49.5111C16.9797 47.5396 21.9732 46.1952 27.1136 45.656C25.3289 45.2341 24.1906 44.5983 24.1906 43.8868Z" fill="black"/>
<path d="M36.9805 42.0142C39.0445 42.4318 40.3966 43.1147 40.3966 43.887C40.3966 44.6142 39.2116 45.26 37.3627 45.6805C42.6118 46.2547 47.6903 47.672 52.177 49.7293C53.0474 48.7826 53.8486 47.77 54.5743 46.7045C49.277 44.2367 43.2324 42.587 36.9805 42.0142Z" fill="black"/>
<path d="M5.8855 34.0044C5.99205 35.3595 6.20155 36.6831 6.50609 37.9725C14.3225 34.2332 23.871 31.995 32.3354 31.995C40.8523 31.995 50.5211 34.1989 58.426 37.9181C58.7269 36.6345 58.9328 35.3159 59.0372 33.9693C50.8076 30.2873 41.1402 28.0991 32.3354 28.0991C23.5831 28.0984 14.0266 30.3088 5.8855 34.0044Z" fill="black"/>
<path d="M33.2879 43.525C33.2879 43.525 32.979 43.9898 32.3534 43.9898C31.727 43.9898 31.4722 43.525 31.4722 43.525V5.44751H31.5614L41.552 15.5433L33.2879 15.519V43.525Z" fill="black"/>
</svg>
