<svg width="42" height="34" viewBox="0 0 42 34" fill="none" xmlns="http://www.w3.org/2000/svg">
<path d="M4.16667 33.3333C3.02083 33.3333 2.04028 32.9257 1.225 32.1104C0.408334 31.2937 0 30.3125 0 29.1667V4.16667C0 3.02083 0.408334 2.04028 1.225 1.225C2.04028 0.408333 3.02083 0 4.16667 0H37.5C38.6458 0 39.6271 0.408333 40.4438 1.225C41.259 2.04028 41.6667 3.02083 41.6667 4.16667V29.1667C41.6667 30.3125 41.259 31.2937 40.4438 32.1104C39.6271 32.9257 38.6458 33.3333 37.5 33.3333H4.16667ZM20.8333 18.75L4.16667 8.33333V29.1667H37.5V8.33333L20.8333 18.75ZM20.8333 14.5833L37.5 4.16667H4.16667L20.8333 14.5833ZM4.16667 8.33333V4.16667V29.1667V8.33333Z" fill="#F3F0ED"/>
</svg>
