<svg width="152" height="63" viewBox="0 0 152 63" fill="none" xmlns="http://www.w3.org/2000/svg">
<g filter="url(#filter0_d_775_6171)">
<path d="M29.975 38V19.5H32.625V38H29.975ZM36.3543 38V24.4H38.5293L38.7168 25.9H38.8668C39.3751 25.3333 39.9585 24.9083 40.6168 24.625C41.2835 24.3333 41.996 24.1875 42.7543 24.1875C43.5293 24.1875 44.221 24.35 44.8293 24.675C45.4376 24.9917 45.9168 25.5083 46.2668 26.225C46.6168 26.9417 46.7918 27.9 46.7918 29.1V38H44.2293V29.3C44.2293 28.2333 44.021 27.4958 43.6043 27.0875C43.196 26.6792 42.6501 26.475 41.9668 26.475C41.6251 26.475 41.271 26.5333 40.9043 26.65C40.5376 26.7583 40.1876 26.9333 39.8543 27.175C39.521 27.4167 39.2251 27.7333 38.9668 28.125V38H36.3543ZM51.9668 38V29.3C51.9668 28.2333 51.7501 27.4958 51.3168 27.0875C50.8835 26.6792 50.3251 26.475 49.6418 26.475C49.2918 26.475 48.921 26.5333 48.5293 26.65C48.146 26.7667 47.771 26.9625 47.4043 27.2375C47.046 27.5125 46.7376 27.8833 46.4793 28.35L45.8793 26.4375C46.5293 25.6125 47.246 25.0333 48.0293 24.7C48.821 24.3583 49.5918 24.1875 50.3418 24.1875C51.1585 24.1875 51.8835 24.35 52.5168 24.675C53.1585 25 53.6585 25.5292 54.0168 26.2625C54.3835 26.9875 54.5668 27.9583 54.5668 29.175V38H51.9668ZM57.9607 43.5V24.4H60.1732L60.3482 25.8875H60.4857C60.8857 25.3792 61.4024 24.9708 62.0357 24.6625C62.6691 24.3458 63.3899 24.1875 64.1982 24.1875C65.1816 24.1875 66.0816 24.4083 66.8982 24.85C67.7232 25.2917 68.3816 26.0083 68.8732 27C69.3732 27.9833 69.6232 29.3 69.6232 30.95C69.6232 32.5667 69.3566 33.9167 68.8232 35C68.2899 36.075 67.4982 36.8833 66.4482 37.425C65.4066 37.9667 64.1191 38.2375 62.5857 38.2375C62.2441 38.2375 61.8982 38.2208 61.5482 38.1875C61.1982 38.1625 60.8732 38.1292 60.5732 38.0875V43.5H57.9607ZM62.6107 36.175C64.0607 36.175 65.1482 35.7875 65.8732 35.0125C66.6066 34.2292 66.9732 32.9458 66.9732 31.1625C66.9732 29.9208 66.8232 28.9542 66.5232 28.2625C66.2316 27.5708 65.8232 27.0833 65.2982 26.8C64.7816 26.5167 64.1899 26.375 63.5232 26.375C62.9816 26.375 62.4441 26.4917 61.9107 26.725C61.3857 26.95 60.9399 27.3167 60.5732 27.825V35.9625C60.8482 36.0292 61.1691 36.0833 61.5357 36.125C61.9024 36.1583 62.2607 36.175 62.6107 36.175ZM72.4627 38V24.4H74.6252L74.8377 26.2H74.9752C75.4169 25.55 75.9794 25.0625 76.6627 24.7375C77.346 24.4125 78.071 24.25 78.8377 24.25C79.0377 24.25 79.2294 24.2583 79.4127 24.275C79.596 24.2917 79.7669 24.3167 79.9252 24.35V26.7375C79.7252 26.7042 79.521 26.6833 79.3127 26.675C79.1127 26.6583 78.9085 26.65 78.7002 26.65C78.2669 26.65 77.821 26.7167 77.3627 26.85C76.9127 26.975 76.4877 27.1667 76.0877 27.425C75.6877 27.6833 75.3502 28.0042 75.0752 28.3875V38H72.4627ZM81.9598 38V24.4H84.5723V38H81.9598ZM83.2723 21.75C82.7056 21.75 82.2764 21.6167 81.9848 21.35C81.6931 21.0833 81.5473 20.7167 81.5473 20.25C81.5473 19.7667 81.6931 19.3917 81.9848 19.125C82.2764 18.8583 82.7056 18.725 83.2723 18.725C83.8473 18.725 84.2764 18.8583 84.5598 19.125C84.8514 19.3917 84.9973 19.7667 84.9973 20.25C84.9973 20.7167 84.8514 21.0833 84.5598 21.35C84.2764 21.6167 83.8473 21.75 83.2723 21.75ZM88.1121 38V24.4H90.2871L90.4746 25.9H90.6246C91.1329 25.3333 91.7163 24.9083 92.3746 24.625C93.0413 24.3333 93.7538 24.1875 94.5121 24.1875C95.2871 24.1875 95.9788 24.35 96.5871 24.675C97.1954 24.9917 97.6746 25.5083 98.0246 26.225C98.3746 26.9417 98.5496 27.9 98.5496 29.1V38H95.9871V29.3C95.9871 28.2333 95.7788 27.4958 95.3621 27.0875C94.9538 26.6792 94.4079 26.475 93.7246 26.475C93.3829 26.475 93.0288 26.5333 92.6621 26.65C92.2954 26.7583 91.9454 26.9333 91.6121 27.175C91.2788 27.4167 90.9829 27.7333 90.7246 28.125V38H88.1121ZM103.725 38V29.3C103.725 28.2333 103.508 27.4958 103.075 27.0875C102.641 26.6792 102.083 26.475 101.4 26.475C101.05 26.475 100.679 26.5333 100.287 26.65C99.9038 26.7667 99.5288 26.9625 99.1621 27.2375C98.8038 27.5125 98.4954 27.8833 98.2371 28.35L97.6371 26.4375C98.2871 25.6125 99.0038 25.0333 99.7871 24.7C100.579 24.3583 101.35 24.1875 102.1 24.1875C102.916 24.1875 103.641 24.35 104.275 24.675C104.916 25 105.416 25.5292 105.775 26.2625C106.141 26.9875 106.325 27.9583 106.325 29.175V38H103.725ZM109.719 38V24.4H112.331V38H109.719ZM111.031 21.75C110.464 21.75 110.035 21.6167 109.744 21.35C109.452 21.0833 109.306 20.7167 109.306 20.25C109.306 19.7667 109.452 19.3917 109.744 19.125C110.035 18.8583 110.464 18.725 111.031 18.725C111.606 18.725 112.035 18.8583 112.319 19.125C112.61 19.3917 112.756 19.7667 112.756 20.25C112.756 20.7167 112.61 21.0833 112.319 21.35C112.035 21.6167 111.606 21.75 111.031 21.75ZM115.871 38V24.4H118.033L118.246 26.2H118.383C118.825 25.55 119.388 25.0625 120.071 24.7375C120.754 24.4125 121.479 24.25 122.246 24.25C122.446 24.25 122.638 24.2583 122.821 24.275C123.004 24.2917 123.175 24.3167 123.333 24.35V26.7375C123.133 26.7042 122.929 26.6833 122.721 26.675C122.521 26.6583 122.317 26.65 122.108 26.65C121.675 26.65 121.229 26.7167 120.771 26.85C120.321 26.975 119.896 27.1667 119.496 27.425C119.096 27.6833 118.758 28.0042 118.483 28.3875V38H115.871Z" fill="#0F99CA"/>
<rect x="4.5" y="0.5" width="143" height="54" rx="4.5" stroke="#0F99CA" shape-rendering="crispEdges"/>
</g>
<defs>
<filter id="filter0_d_775_6171" x="0" y="0" width="152" height="63" filterUnits="userSpaceOnUse" color-interpolation-filters="sRGB">
<feFlood flood-opacity="0" result="BackgroundImageFix"/>
<feColorMatrix in="SourceAlpha" type="matrix" values="0 0 0 0 0 0 0 0 0 0 0 0 0 0 0 0 0 0 127 0" result="hardAlpha"/>
<feOffset dy="4"/>
<feGaussianBlur stdDeviation="2"/>
<feComposite in2="hardAlpha" operator="out"/>
<feColorMatrix type="matrix" values="0 0 0 0 0 0 0 0 0 0 0 0 0 0 0 0 0 0 0.25 0"/>
<feBlend mode="normal" in2="BackgroundImageFix" result="effect1_dropShadow_775_6171"/>
<feBlend mode="normal" in="SourceGraphic" in2="effect1_dropShadow_775_6171" result="shape"/>
</filter>
</defs>
</svg>
