<svg width="164" height="63" viewBox="0 0 164 63" fill="none" xmlns="http://www.w3.org/2000/svg">
<g filter="url(#filter0_d_775_6170)">
<rect x="4" width="156" height="55" rx="5" fill="#0F99CA" shape-rendering="crispEdges"/>
<path d="M30.025 38V19.5H33.2125L39.5 33.2125H39.05L45.2375 19.5H48.425V38H45.9375V21.8125H46.5875L40.375 35.4H38.075L31.7625 21.8125H32.5125V38H30.025ZM57.5859 38.25C56.3609 38.25 55.2943 38 54.3859 37.5C53.4859 37 52.7859 36.2333 52.2859 35.2C51.7859 34.1667 51.5359 32.8417 51.5359 31.225C51.5359 29.6 51.7818 28.2708 52.2734 27.2375C52.7651 26.2042 53.4609 25.4375 54.3609 24.9375C55.2693 24.4375 56.3443 24.1875 57.5859 24.1875C58.8276 24.1875 59.8984 24.4375 60.7984 24.9375C61.7068 25.4375 62.4068 26.2042 62.8984 27.2375C63.3901 28.2708 63.6359 29.5958 63.6359 31.2125C63.6359 32.8208 63.3859 34.1458 62.8859 35.1875C62.3943 36.2292 61.6943 37 60.7859 37.5C59.8776 38 58.8109 38.25 57.5859 38.25ZM57.5859 36.1875C58.2859 36.1875 58.8901 36.0375 59.3984 35.7375C59.9068 35.4292 60.2984 34.9167 60.5734 34.2C60.8484 33.475 60.9859 32.4875 60.9859 31.2375C60.9859 29.9708 60.8484 28.975 60.5734 28.25C60.2984 27.525 59.9068 27.0125 59.3984 26.7125C58.8901 26.4042 58.2859 26.25 57.5859 26.25C56.8859 26.25 56.2818 26.4 55.7734 26.7C55.2651 27 54.8734 27.5125 54.5984 28.2375C54.3234 28.9542 54.1859 29.9375 54.1859 31.1875C54.1859 32.4542 54.3193 33.45 54.5859 34.175C54.8609 34.9 55.2526 35.4167 55.7609 35.725C56.2776 36.0333 56.8859 36.1875 57.5859 36.1875ZM71.3408 38.2375C70.3492 38.2375 69.4408 38.0125 68.6158 37.5625C67.7992 37.1125 67.145 36.3958 66.6533 35.4125C66.1617 34.4208 65.9158 33.1083 65.9158 31.475C65.9158 29.8583 66.1825 28.5125 66.7158 27.4375C67.2492 26.3542 68.0367 25.5417 69.0783 25C70.1283 24.4583 71.42 24.1875 72.9533 24.1875C73.3033 24.1875 73.6533 24.2042 74.0033 24.2375C74.3533 24.2625 74.6742 24.2958 74.9658 24.3375V17.8H77.5783V38H75.3658L75.2033 36.5375H75.0533C74.6533 37.0375 74.1367 37.4458 73.5033 37.7625C72.8783 38.0792 72.1575 38.2375 71.3408 38.2375ZM72.0158 36.05C72.5658 36.05 73.1033 35.9333 73.6283 35.7C74.1533 35.4667 74.5992 35.1 74.9658 34.6V26.4625C74.6908 26.3958 74.37 26.3458 74.0033 26.3125C73.645 26.2708 73.2867 26.25 72.9283 26.25C71.4867 26.25 70.3992 26.6375 69.6658 27.4125C68.9325 28.1875 68.5658 29.4708 68.5658 31.2625C68.5658 32.4958 68.7117 33.4625 69.0033 34.1625C69.295 34.8542 69.6992 35.3417 70.2158 35.625C70.7408 35.9083 71.3408 36.05 72.0158 36.05ZM81.1053 38V24.4H83.7178V38H81.1053ZM82.4178 21.75C81.8511 21.75 81.4219 21.6167 81.1303 21.35C80.8386 21.0833 80.6928 20.7167 80.6928 20.25C80.6928 19.7667 80.8386 19.3917 81.1303 19.125C81.4219 18.8583 81.8511 18.725 82.4178 18.725C82.9928 18.725 83.4219 18.8583 83.7053 19.125C83.9969 19.3917 84.1428 19.7667 84.1428 20.25C84.1428 20.7167 83.9969 21.0833 83.7053 21.35C83.4219 21.6167 82.9928 21.75 82.4178 21.75ZM88.2076 38V22.6875C88.2076 21.5792 88.4076 20.6458 88.8076 19.8875C89.2076 19.1208 89.7993 18.5417 90.5826 18.15C91.3743 17.75 92.3493 17.55 93.5076 17.55C93.8243 17.55 94.141 17.5625 94.4576 17.5875C94.7743 17.6125 95.0868 17.65 95.3951 17.7V19.825C95.1285 19.775 94.866 19.7417 94.6076 19.725C94.3493 19.7 94.0868 19.6875 93.8201 19.6875C92.7951 19.6875 92.0326 19.9125 91.5326 20.3625C91.041 20.8042 90.7951 21.5375 90.7951 22.5625V38H88.2076ZM85.7576 26.5125V24.4H94.8576V26.5125H85.7576ZM97.0232 38V24.4H99.6357V38H97.0232ZM98.3357 21.75C97.7691 21.75 97.3399 21.6167 97.0482 21.35C96.7566 21.0833 96.6107 20.7167 96.6107 20.25C96.6107 19.7667 96.7566 19.3917 97.0482 19.125C97.3399 18.8583 97.7691 18.725 98.3357 18.725C98.9107 18.725 99.3399 18.8583 99.6232 19.125C99.9149 19.3917 100.061 19.7667 100.061 20.25C100.061 20.7167 99.9149 21.0833 99.6232 21.35C99.3399 21.6167 98.9107 21.75 98.3357 21.75ZM108.838 38.25C107.48 38.25 106.326 38 105.376 37.5C104.434 37 103.717 36.2333 103.226 35.2C102.734 34.1667 102.488 32.8375 102.488 31.2125C102.488 29.5792 102.751 28.2458 103.276 27.2125C103.809 26.1792 104.584 25.4167 105.601 24.925C106.617 24.4333 107.855 24.1875 109.313 24.1875C109.813 24.1875 110.305 24.2167 110.788 24.275C111.271 24.3333 111.734 24.4167 112.176 24.525V26.675C111.734 26.5667 111.301 26.4875 110.876 26.4375C110.459 26.3792 110.042 26.35 109.626 26.35C108.626 26.35 107.796 26.5083 107.138 26.825C106.48 27.1417 105.988 27.6542 105.663 28.3625C105.346 29.0625 105.188 30 105.188 31.175C105.188 32.375 105.338 33.3333 105.638 34.05C105.946 34.7667 106.401 35.2833 107.001 35.6C107.601 35.9167 108.342 36.075 109.226 36.075C109.659 36.075 110.109 36.0333 110.576 35.95C111.051 35.8667 111.584 35.7375 112.176 35.5625V37.7C111.659 37.875 111.117 38.0083 110.551 38.1C109.984 38.2 109.413 38.25 108.838 38.25ZM117.942 38.225C116.626 38.225 115.592 37.8875 114.842 37.2125C114.101 36.5375 113.73 35.6167 113.73 34.45C113.73 33.2417 114.138 32.2958 114.955 31.6125C115.772 30.9292 117.08 30.5083 118.88 30.35L122.292 30.0125L122.555 31.6L119.105 31.95C118.122 32.05 117.413 32.2875 116.98 32.6625C116.555 33.0292 116.342 33.5458 116.342 34.2125C116.342 34.8875 116.538 35.4083 116.93 35.775C117.33 36.1333 117.913 36.3125 118.68 36.3125C119.213 36.3125 119.747 36.2042 120.28 35.9875C120.813 35.7708 121.292 35.4083 121.717 34.9V29.2C121.717 28.4333 121.597 27.8375 121.355 27.4125C121.113 26.9875 120.742 26.6875 120.242 26.5125C119.742 26.3375 119.105 26.25 118.33 26.25C117.813 26.25 117.23 26.2958 116.58 26.3875C115.93 26.4792 115.288 26.6292 114.655 26.8375V24.7875C115.263 24.5875 115.934 24.4375 116.667 24.3375C117.401 24.2375 118.088 24.1875 118.73 24.1875C119.972 24.1875 121.001 24.35 121.817 24.675C122.642 24.9917 123.255 25.525 123.655 26.275C124.063 27.025 124.267 28.05 124.267 29.35V38H122.105L121.917 36.5375H121.767C121.334 37.0958 120.78 37.5167 120.105 37.8C119.438 38.0833 118.717 38.225 117.942 38.225ZM127.663 38V24.4H129.825L130.038 26.2H130.175C130.617 25.55 131.18 25.0625 131.863 24.7375C132.546 24.4125 133.271 24.25 134.038 24.25C134.238 24.25 134.43 24.2583 134.613 24.275C134.796 24.2917 134.967 24.3167 135.125 24.35V26.7375C134.925 26.7042 134.721 26.6833 134.513 26.675C134.313 26.6583 134.109 26.65 133.9 26.65C133.467 26.65 133.021 26.7167 132.563 26.85C132.113 26.975 131.688 27.1667 131.288 27.425C130.888 27.6833 130.55 28.0042 130.275 28.3875V38H127.663Z" fill="white"/>
</g>
<defs>
<filter id="filter0_d_775_6170" x="0" y="0" width="164" height="63" filterUnits="userSpaceOnUse" color-interpolation-filters="sRGB">
<feFlood flood-opacity="0" result="BackgroundImageFix"/>
<feColorMatrix in="SourceAlpha" type="matrix" values="0 0 0 0 0 0 0 0 0 0 0 0 0 0 0 0 0 0 127 0" result="hardAlpha"/>
<feOffset dy="4"/>
<feGaussianBlur stdDeviation="2"/>
<feComposite in2="hardAlpha" operator="out"/>
<feColorMatrix type="matrix" values="0 0 0 0 0 0 0 0 0 0 0 0 0 0 0 0 0 0 0.25 0"/>
<feBlend mode="normal" in2="BackgroundImageFix" result="effect1_dropShadow_775_6170"/>
<feBlend mode="normal" in="SourceGraphic" in2="effect1_dropShadow_775_6170" result="shape"/>
</filter>
</defs>
</svg>
