<?xml version="1.0" encoding="UTF-8" standalone="no"?>
<svg
   width="28"
   height="28"
   viewBox="0 0 28 28"
   fill="none"
   version="1.1"
   id="svg4"
   sodipodi:docname="cuadro-sin-estado.svg"
   inkscape:version="1.2.2 (732a01da63, 2022-12-09)"
   xmlns:inkscape="http://www.inkscape.org/namespaces/inkscape"
   xmlns:sodipodi="http://sodipodi.sourceforge.net/DTD/sodipodi-0.dtd"
   xmlns="http://www.w3.org/2000/svg"
   xmlns:svg="http://www.w3.org/2000/svg">
  <defs
     id="defs8" />
  <sodipodi:namedview
     id="namedview6"
     pagecolor="#ffffff"
     bordercolor="#000000"
     borderopacity="0.25"
     inkscape:showpageshadow="2"
     inkscape:pageopacity="0.0"
     inkscape:pagecheckerboard="0"
     inkscape:deskcolor="#d1d1d1"
     showgrid="false"
     inkscape:zoom="10.467706"
     inkscape:cx="-4.7288299"
     inkscape:cy="18.055532"
     inkscape:window-width="1920"
     inkscape:window-height="1009"
     inkscape:window-x="-8"
     inkscape:window-y="-8"
     inkscape:window-maximized="1"
     inkscape:current-layer="text222" />
  <path
     opacity="0.5"
     d="M 1.34614,26.6539 H 26.6539 V 1.34614 H 1.34614 Z m 0,1.3461 C 0.97596,28 0.65905,27.8682 0.395412,27.6046 0.131804,27.3409 0,27.024 0,26.6539 V 1.34614 C 0,0.975961 0.131804,0.65905 0.395412,0.395412 0.65905,0.131804 0.97596,0 1.34614,0 H 26.6539 c 0.3701,0 0.687,0.131804 0.9507,0.395412 C 27.8682,0.65905 28,0.975961 28,1.34614 V 26.6539 c 0,0.3701 -0.1318,0.687 -0.3954,0.9507 C 27.3409,27.8682 27.024,28 26.6539,28 Z"
     fill="#6f6f6e"
     id="path2"
     sodipodi:nodetypes="cccccscsscsscsscss" />
  <g
     aria-label="?"
     id="text222"
     style="font-size:31.5548px;font-family:'Cascadia Code';-inkscape-font-specification:'Cascadia Code, Normal';fill:#70706e;fill-opacity:0.501961;stroke-width:2.62956">
    <path
       d="M 12.129629,18.010931 V 16.5318 q 0,-1.525355 0.631712,-2.680926 0.631713,-1.170979 1.895137,-1.972175 1.248017,-0.770381 1.864322,-1.67943 0.631712,-0.9244572 0.631712,-1.9875828 0,-1.1555713 -0.770381,-1.7872836 -0.77038,-0.6471199 -2.187881,-0.6471199 l 0.03082,-2.9274473 q 3.004485,0 4.6531,1.371278 1.664023,1.3558703 1.664023,3.8364966 0,1.7102456 -0.862826,3.112339 -0.847419,1.402093 -2.557665,2.496034 -0.986087,0.64712 -1.479131,1.4175 -0.493044,0.754974 -0.493044,1.664023 v 1.263425 z M 8.95566,8.4273929 6.8294088,6.2241036 Q 7.907942,4.6987495 9.8955246,3.7742925 11.898515,2.8498354 14.225065,2.8498354 l -0.03082,2.9274473 q -1.448316,0 -2.850409,0.724158 -1.4020935,0.724158 -2.388181,1.9259522 z m 4.745546,16.9175641 q -0.939865,0 -1.6178,-0.662528 -0.662527,-0.677935 -0.662527,-1.6178 0,-0.955272 0.662527,-1.6178 0.677935,-0.662527 1.6178,-0.662527 0.955272,0 1.6178,0.662527 0.662527,0.662528 0.662527,1.6178 0,0.939865 -0.662527,1.6178 -0.662528,0.662528 -1.6178,0.662528 z"
       id="path691" />
  </g>
</svg>
