<svg width="28" height="28" viewBox="0 0 28 28" fill="none" xmlns="http://www.w3.org/2000/svg">
<path d="M2.42305 28C1.75055 28 1.17858 27.7643 0.707131 27.2929C0.23571 26.8214 0 26.2494 0 25.577V2.42305C0 1.75055 0.23571 1.17858 0.707131 0.707131C1.17858 0.23571 1.75055 0 2.42305 0H25.577C26.2494 0 26.8214 0.23571 27.2929 0.707131C27.7643 1.17858 28 1.75055 28 2.42305V25.577C28 26.2494 27.7643 26.8214 27.2929 27.2929C26.8214 27.7643 26.2494 28 25.577 28H2.42305ZM2.42305 26.6539H25.577C25.891 26.6539 26.1491 26.5529 26.351 26.351C26.5529 26.1491 26.6539 25.891 26.6539 25.577V2.42305C26.6539 2.10895 26.5529 1.85095 26.351 1.64902C26.1491 1.4471 25.891 1.34614 25.577 1.34614H2.42305C2.10895 1.34614 1.85095 1.4471 1.64903 1.64902C1.4471 1.85095 1.34614 2.10895 1.34614 2.42305V25.577C1.34614 25.891 1.4471 26.1491 1.64903 26.351C1.85095 26.5529 2.10895 26.6539 2.42305 26.6539ZM11.4717 19.489C11.6306 19.489 11.7748 19.4542 11.9043 19.3846C12.0338 19.3151 12.1602 19.2186 12.2836 19.0952L22.3159 9.06299C22.437 8.96426 22.4993 8.82067 22.5026 8.63223C22.506 8.44375 22.4433 8.27924 22.3144 8.13868C22.1651 7.97859 21.9978 7.89854 21.8127 7.89854C21.6277 7.89854 21.4712 7.9737 21.3433 8.12402L11.4659 18.0014L6.80816 13.3774C6.68703 13.2562 6.53952 13.194 6.36562 13.1906C6.19173 13.1873 6.03451 13.25 5.89396 13.3789C5.73389 13.5282 5.65386 13.6954 5.65386 13.8805C5.65386 14.0656 5.72902 14.2333 5.87934 14.3836L10.6195 19.1036C10.7395 19.2214 10.8698 19.3151 11.0103 19.3846C11.1509 19.4542 11.3046 19.489 11.4717 19.489Z" fill="#2BB728"/>
</svg>
