<svg width="28" height="28" viewBox="0 0 28 28" fill="none" xmlns="http://www.w3.org/2000/svg">
<path d="M1.34614 26.6539H26.6539V1.34614H1.34614V26.6539ZM1.34614 28C0.97596 28 0.65905 27.8682 0.395412 27.6046C0.131804 27.3409 0 27.024 0 26.6539V1.34614C0 0.975961 0.131804 0.65905 0.395412 0.395412C0.65905 0.131804 0.97596 0 1.34614 0H26.6539C27.024 0 27.3409 0.131804 27.6046 0.395412C27.8682 0.65905 28 0.975961 28 1.34614V26.6539C28 27.024 27.8682 27.3409 27.6046 27.6046C27.3409 27.8682 27.024 28 26.6539 28H1.34614ZM7.21875 20.7812C7.34665 20.9091 7.50706 20.9731 7.7 20.9731C7.89294 20.9731 8.05335 20.9091 8.18125 20.7812L14 14.9289L19.8188 20.7812C19.9466 20.9091 20.1071 20.9731 20.3 20.9731C20.4929 20.9731 20.6534 20.9091 20.7812 20.7812C20.9091 20.6534 20.9731 20.4929 20.9731 20.3C20.9731 20.1071 20.9091 19.9466 20.7812 19.8188L14.9289 14L20.7812 8.18125C20.9091 8.05335 20.9731 7.89294 20.9731 7.7C20.9731 7.50706 20.9091 7.34665 20.7812 7.21875C20.6534 7.09085 20.4929 7.02691 20.3 7.02691C20.1071 7.02691 19.9466 7.09085 19.8188 7.21875L14 13.0711L8.18125 7.21875C8.05335 7.09085 7.89294 7.02691 7.7 7.02691C7.50706 7.02691 7.34665 7.09085 7.21875 7.21875C7.09085 7.34665 7.02691 7.50706 7.02691 7.7C7.02691 7.89294 7.09085 8.05335 7.21875 8.18125L13.0711 14L7.21875 19.8188C7.09085 19.9466 7.02691 20.1071 7.02691 20.3C7.02691 20.4929 7.09085 20.6534 7.21875 20.7812Z" fill="#D32525"/>
</svg>
