<svg width="18" height="14" viewBox="0 0 18 14" fill="none" xmlns="http://www.w3.org/2000/svg">
<path d="M1.3846 14C1.00032 14 0.673475 13.8653 0.404075 13.5959C0.134692 13.3265 0 12.9997 0 12.6154V1.3846C0 1.00032 0.134692 0.673475 0.404075 0.404075C0.673475 0.134692 1.00032 0 1.3846 0H5.6923C5.80192 0 5.89342 0.0371502 5.96683 0.11145C6.04023 0.18575 6.07692 0.278375 6.07692 0.389325C6.07692 0.500292 6.04023 0.59135 5.96683 0.6625C5.89342 0.73365 5.80192 0.769225 5.6923 0.769225H1.3846C1.23077 0.769225 1.08974 0.833325 0.961525 0.961525C0.833325 1.08974 0.769225 1.23077 0.769225 1.3846V12.6154C0.769225 12.7692 0.833325 12.9103 0.961525 13.0385C1.08974 13.1667 1.23077 13.2308 1.3846 13.2308H16.6154C16.7692 13.2308 16.9103 13.1667 17.0385 13.0385C17.1667 12.9103 17.2308 12.7692 17.2308 12.6154V1.3846C17.2308 1.23077 17.1667 1.08974 17.0385 0.961525C16.9103 0.833325 16.7692 0.769225 16.6154 0.769225H12.3077C12.1981 0.769225 12.1066 0.732075 12.0332 0.657775C11.9598 0.583475 11.9231 0.49085 11.9231 0.3799C11.9231 0.268934 11.9598 0.177875 12.0332 0.106725C12.1066 0.0355753 12.1981 0 12.3077 0H16.6154C16.9997 0 17.3265 0.134692 17.5959 0.404075C17.8653 0.673475 18 1.00032 18 1.3846V12.6154C18 12.9997 17.8653 13.3265 17.5959 13.5959C17.3265 13.8653 16.9997 14 16.6154 14H1.3846ZM8.9941 9.61347C8.89803 9.61347 8.81154 9.59681 8.73463 9.56348C8.65769 9.53014 8.58397 9.47822 8.51345 9.4077L4.94808 5.8423C4.87884 5.77307 4.84743 5.68627 4.85385 5.58192C4.86025 5.47756 4.90325 5.37742 4.98285 5.28152C5.06223 5.21179 5.1516 5.17693 5.25095 5.17693C5.35032 5.17693 5.44295 5.21346 5.52885 5.28653L8.61537 8.37885V0.3846C8.61537 0.274983 8.65252 0.183483 8.72682 0.1101C8.80114 0.0366998 8.89377 0 9.00473 0C9.11567 0 9.20673 0.0366998 9.27787 0.1101C9.34904 0.183483 9.38463 0.274983 9.38463 0.3846V8.37885L12.4962 5.28653C12.5701 5.21731 12.6555 5.1827 12.7526 5.1827C12.8496 5.1827 12.941 5.22564 13.0269 5.31152C13.1128 5.39743 13.1558 5.49006 13.1558 5.58943C13.1558 5.68878 13.1128 5.7814 13.0269 5.8673L9.48655 9.4077C9.41603 9.47822 9.34034 9.53014 9.25947 9.56348C9.17863 9.59681 9.09017 9.61347 8.9941 9.61347Z" fill="#4A4A4A"/>
</svg>
