<svg width="18" height="18" viewBox="0 0 18 18" fill="none" xmlns="http://www.w3.org/2000/svg">
<circle cx="9" cy="9" r="9" fill="#4A4A4A"/>
<path d="M6.91617 13.7226C6.09711 14.2686 5 13.6814 5 12.697C5 12.2248 5.26979 11.7942 5.69466 11.5881L9.55012 9.71819C9.82528 9.58474 10 9.30581 10 9C10 8.69419 9.82528 8.41526 9.55012 8.28181L5.69466 6.41191C5.26979 6.20585 5 5.77515 5 5.30295C5 4.31856 6.09711 3.7314 6.91617 4.27745L11.668 7.4453C12.1878 7.79185 12.5 8.37526 12.5 9C12.5 9.62474 12.1878 10.2082 11.6679 10.5547L6.91617 13.7226Z" fill="white"/>
</svg>
