<?xml version="1.0" encoding="UTF-8" standalone="no"?>
<!-- Created with Inkscape (http://www.inkscape.org/) -->

<svg
   width="62.350533"
   height="62.365959"
   viewBox="0 0 16.496911 16.500993"
   version="1.1"
   id="svg5"
   xml:space="preserve"
   inkscape:version="1.2.2 (732a01da63, 2022-12-09)"
   sodipodi:docname="editar.svg"
   xmlns:inkscape="http://www.inkscape.org/namespaces/inkscape"
   xmlns:sodipodi="http://sodipodi.sourceforge.net/DTD/sodipodi-0.dtd"
   xmlns="http://www.w3.org/2000/svg"
   xmlns:svg="http://www.w3.org/2000/svg"><sodipodi:namedview
     id="namedview7"
     pagecolor="#ffffff"
     bordercolor="#000000"
     borderopacity="0.25"
     inkscape:showpageshadow="2"
     inkscape:pageopacity="0.0"
     inkscape:pagecheckerboard="0"
     inkscape:deskcolor="#d1d1d1"
     inkscape:document-units="mm"
     showgrid="false"
     inkscape:zoom="11.873288"
     inkscape:cx="33.731177"
     inkscape:cy="39.205651"
     inkscape:window-width="2400"
     inkscape:window-height="1261"
     inkscape:window-x="-9"
     inkscape:window-y="-9"
     inkscape:window-maximized="1"
     inkscape:current-layer="layer1" /><defs
     id="defs2" /><g
     inkscape:label="Capa 1"
     inkscape:groupmode="layer"
     id="layer1"
     transform="translate(-0.24137934,-0.39826029)"><path
       style="fill:#2c3e50;fill-opacity:0.890196;stroke-width:0.035002"
       d="M 2.1898197,16.875361 C 1.2902001,16.756538 0.54476799,16.093628 0.30295039,15.197399 0.24566337,14.985051 0.24156661,14.601277 0.24156661,9.4395702 0.24156661,3.3405119 0.2263307,3.7531325 0.470713,3.2442159 0.74405538,2.6750531 1.1676289,2.2998654 1.7816548,2.0830279 l 0.2800157,-0.098881 2.8526634,-0.010327 c 2.1855727,-0.00796 2.8892262,-2.505e-4 3.0090177,0.032927 0.2115523,0.05859 0.4283306,0.2779961 0.4890948,0.4950249 0.096579,0.3449342 -0.055036,0.7036485 -0.3647697,0.8630855 l -0.1737233,0.089418 -2.8186365,0.017504 c -2.5658119,0.015913 -2.828374,0.022837 -2.9271958,0.076975 -0.1532902,0.083967 -0.3191246,0.2838366 -0.364013,0.4387316 -0.027069,0.09343 -0.035178,1.7030768 -0.027831,5.5247085 l 0.010327,5.3928716 0.096545,0.145892 c 0.053106,0.08024 0.1622117,0.189347 0.2424524,0.242451 l 0.1458923,0.09656 5.3928705,0.01033 c 3.8216327,0.0073 5.4312807,-7.55e-4 5.5247077,-0.02783 0.166105,-0.04814 0.359581,-0.216272 0.447758,-0.38911 0.06553,-0.128438 0.06795,-0.230006 0.06814,-2.855976 1.32e-4,-1.834856 0.01253,-2.7684605 0.0379,-2.8628097 0.08491,-0.3153055 0.398668,-0.5775324 0.691004,-0.5775324 0.331773,0 0.654016,0.2303991 0.735932,0.5261823 0.0332,0.1198727 0.04075,0.8220468 0.03238,3.0090198 -0.01016,2.659539 -0.01524,2.865696 -0.07532,3.045175 -0.214747,0.642076 -0.606648,1.110198 -1.159589,1.385115 -0.522632,0.259846 -0.01642,0.23933 -6.0728462,0.246081 -2.9935448,0.0034 -5.5426513,-0.0071 -5.6646791,-0.02324 z M 5.2684571,12.390513 C 5.0352461,12.338473 4.7938348,12.082295 4.7418008,11.831644 4.7031524,11.645477 4.7124632,11.599264 5.1063876,10.020441 5.4432451,8.670365 5.5275878,8.3760428 5.6123383,8.2548868 5.7301289,8.0864962 12.805704,1.0177839 13.021011,0.85339687 13.598684,0.41234437 14.437229,0.2781651 15.159925,0.51113739 16.69783,1.0069071 17.243974,2.940725 16.203015,4.2045641 15.96754,4.4904558 8.9151704,11.535125 8.8118947,11.587614 c -0.08505,0.04322 -3.2846066,0.846671 -3.3486177,0.840878 -0.022786,-0.002 -0.1104434,-0.01915 -0.1948199,-0.03799 z M 7.3294694,10.436947 8.0470114,10.258785 11.575789,6.7339994 C 13.729464,4.5827617 15.133259,3.1546558 15.178193,3.0692061 15.329774,2.7809613 15.257335,2.3714098 15.011242,2.1253194 14.765151,1.879229 14.355599,1.8067873 14.067354,1.9583677 13.981898,2.0032967 12.553799,3.4070979 10.402561,5.5607733 L 6.8777755,9.0895506 6.6996135,9.8070925 C 6.6016297,10.20174 6.5126909,10.553753 6.5019818,10.589344 c -0.015236,0.0504 -0.00525,0.0604 0.045234,0.04523 0.035584,-0.01066 0.3876015,-0.09964 0.7822488,-0.197632 z"
       id="path1585" /></g></svg>
