<svg width="25" height="28" viewBox="0 0 25 28" fill="none" xmlns="http://www.w3.org/2000/svg">
<path d="M2.14564 28C1.55014 28 1.04365 27.7905 0.626174 27.3714C0.208724 26.9524 0 26.444 0 25.8462V2.15382C0 1.55605 0.208724 1.04763 0.626174 0.628561C1.04365 0.20952 1.55014 0 2.14564 0H13.8127C14.1143 0 14.4007 0.0598243 14.6721 0.179472C14.9436 0.299147 15.1826 0.452705 15.3892 0.64015L21.0573 6.32991C21.2441 6.53731 21.3971 6.77724 21.5163 7.0497C21.6355 7.32213 21.6951 7.6097 21.6951 7.91241V12.5282H20.503V7.77778H15.0197C14.7107 7.77778 14.4547 7.67582 14.2515 7.47192C14.0484 7.26798 13.9468 7.01097 13.9468 6.70087V1.19657H2.14564C1.90725 1.19657 1.68872 1.29628 1.49002 1.49571C1.29136 1.69515 1.19203 1.91453 1.19203 2.15382V25.8462C1.19203 26.0855 1.29136 26.3048 1.49002 26.5043C1.68872 26.7037 1.90725 26.8034 2.14564 26.8034H10.4303V28H2.14564ZM19.603 18.2808L22.0974 20.7547L17.1391 25.7562L15.9823 26.9231L22.0974 20.7547L22.8245 21.4846L16.7368 27.6255C16.6311 27.7316 16.5158 27.8106 16.391 27.8624C16.2662 27.9143 16.1453 27.9402 16.0284 27.9402H13.7233C13.5763 27.9402 13.4477 27.8898 13.3374 27.7891C13.2271 27.6884 13.172 27.5543 13.172 27.3868V25.1328C13.172 25.0154 13.1978 24.894 13.2495 24.7687C13.3011 24.6434 13.3798 24.5277 13.4855 24.4216L19.603 18.2808ZM22.8245 21.4846L19.603 18.2808L21.4596 16.4171C21.6722 16.2037 21.9226 16.097 22.2106 16.097C22.4987 16.097 22.751 16.2037 22.9676 16.4171L24.6811 18.1372C24.8937 18.3546 25 18.6078 25 18.897C25 19.1862 24.8937 19.4375 24.6811 19.6509L22.8245 21.4846Z" fill="#2C3E50"/>
</svg>
