<svg width="62" height="68" viewBox="0 0 62 68" fill="none" xmlns="http://www.w3.org/2000/svg">
<g filter="url(#filter0_d_418_1649)">
<path d="M8.63459 60C7.3483 60 6.25428 59.551 5.35254 58.6531C4.45084 57.7551 4 56.6656 4 55.3847V4.61533C4 3.33439 4.45084 2.24492 5.35254 1.34692C6.25428 0.448972 7.3483 0 8.63459 0H33.8354C34.4868 0 35.1056 0.128195 35.6918 0.384584C36.2781 0.641028 36.7944 0.970083 37.2407 1.37175L49.4839 13.5641C49.8872 14.0085 50.2176 14.5227 50.4752 15.1065C50.7326 15.6903 50.8613 16.3065 50.8613 16.9552V26.8462H48.2866V16.6667H36.4424C35.7752 16.6667 35.2221 16.4482 34.7833 16.0113C34.3445 15.5743 34.1252 15.0235 34.1252 14.359V2.56408H8.63459C8.11967 2.56408 7.64763 2.77775 7.21845 3.20508C6.78934 3.63247 6.57478 4.10256 6.57478 4.61533V55.3847C6.57478 55.8974 6.78934 56.3675 7.21845 56.7949C7.64763 57.2223 8.11967 57.4359 8.63459 57.4359H26.5295V60H8.63459ZM46.3426 39.1731L51.7304 44.4743L41.0204 55.1918L38.5217 57.6923L51.7304 44.4743L53.301 46.0385L40.1514 59.1975C39.9232 59.4248 39.6742 59.5941 39.4047 59.7052C39.135 59.8163 38.8739 59.8718 38.6212 59.8718H33.6424C33.3249 59.8718 33.047 59.7639 32.8088 59.5481C32.5706 59.3323 32.4515 59.0449 32.4515 58.6859V53.856C32.4515 53.6044 32.5073 53.3443 32.6189 53.0758C32.7305 52.8073 32.9004 52.5594 33.1287 52.3321L46.3426 39.1731ZM53.301 46.0385L46.3426 39.1731L50.3528 35.1795C50.812 34.7222 51.3527 34.4936 51.975 34.4936C52.5972 34.4936 53.1422 34.7222 53.61 35.1795L57.3112 38.8654C57.7704 39.3312 58 39.8739 58 40.4936C58 41.1132 57.7704 41.6517 57.3112 42.109L53.301 46.0385Z" fill="#4A4A4A"/>
</g>
<defs>
<filter id="filter0_d_418_1649" x="0" y="0" width="62" height="68" filterUnits="userSpaceOnUse" color-interpolation-filters="sRGB">
<feFlood flood-opacity="0" result="BackgroundImageFix"/>
<feColorMatrix in="SourceAlpha" type="matrix" values="0 0 0 0 0 0 0 0 0 0 0 0 0 0 0 0 0 0 127 0" result="hardAlpha"/>
<feOffset dy="4"/>
<feGaussianBlur stdDeviation="2"/>
<feComposite in2="hardAlpha" operator="out"/>
<feColorMatrix type="matrix" values="0 0 0 0 0 0 0 0 0 0 0 0 0 0 0 0 0 0 0.25 0"/>
<feBlend mode="normal" in2="BackgroundImageFix" result="effect1_dropShadow_418_1649"/>
<feBlend mode="normal" in="SourceGraphic" in2="effect1_dropShadow_418_1649" result="shape"/>
</filter>
</defs>
</svg>
