<svg width="26" height="17" viewBox="0 0 26 17" fill="none" xmlns="http://www.w3.org/2000/svg">
<mask id="path-1-inside-1_418_1728" fill="white">
<path d="M13.0099 13.1272C14.3027 13.1272 15.4076 12.6726 16.3247 11.7632C17.2418 10.8539 17.7003 9.76291 17.7003 8.49022C17.7003 7.21756 17.2385 6.12982 16.3148 5.22701C15.3911 4.32418 14.2829 3.87276 12.9901 3.87276C11.6973 3.87276 10.5924 4.32743 9.67526 5.23675C8.75819 6.14608 8.29965 7.23709 8.29965 8.50978C8.29965 9.78244 8.7615 10.8702 9.68519 11.773C10.6089 12.6758 11.7171 13.1272 13.0099 13.1272ZM12.9877 12.0861C11.9724 12.0861 11.1135 11.7363 10.411 11.0366C9.70849 10.337 9.35726 9.48739 9.35726 8.48787C9.35726 7.48836 9.7126 6.64282 10.4233 5.95124C11.134 5.25969 11.997 4.91392 13.0123 4.91392C14.0276 4.91392 14.8865 5.26373 15.589 5.96337C16.2915 6.66303 16.6427 7.51262 16.6427 8.51213C16.6427 9.51164 16.2874 10.3572 15.5767 11.0488C14.866 11.7403 14.003 12.0861 12.9877 12.0861ZM13.0024 17C10.2692 17 7.76108 16.2875 5.4782 14.8624C3.19529 13.4374 1.41939 11.5349 0.150502 9.15483C0.09956 9.06364 0.0617462 8.96174 0.037061 8.84912C0.0123536 8.73651 0 8.62013 0 8.5C0 8.37987 0.0123536 8.26349 0.037061 8.15088C0.0617462 8.03826 0.09956 7.93636 0.150502 7.84517C1.41939 5.46515 3.19448 3.56261 5.47577 2.13755C7.75707 0.712518 10.2643 0 12.9976 0C15.7308 0 18.2389 0.712518 20.5218 2.13755C22.8047 3.56261 24.5806 5.46515 25.8495 7.84517C25.9004 7.93636 25.9383 8.03826 25.9629 8.15088C25.9876 8.26349 26 8.37987 26 8.5C26 8.62013 25.9876 8.73651 25.9629 8.84912C25.9383 8.96174 25.9004 9.06364 25.8495 9.15483C24.5806 11.5349 22.8055 13.4374 20.5242 14.8624C18.2429 16.2875 15.7357 17 13.0024 17ZM12.9944 15.9941C15.5918 15.9941 17.9715 15.318 20.1335 13.9659C22.2955 12.6138 23.9462 10.7918 25.0855 8.5C23.9462 6.20818 22.2974 4.38622 20.1391 3.03411C17.9809 1.68198 15.603 1.00591 13.0056 1.00591C10.4082 1.00591 8.02846 1.68198 5.86647 3.03411C3.70449 4.38622 2.05129 6.20818 0.906867 8.5C2.05129 10.7918 3.70263 12.6138 5.8609 13.9659C8.01914 15.318 10.397 15.9941 12.9944 15.9941Z"/>
</mask>
<path d="M13.0099 13.1272C14.3027 13.1272 15.4076 12.6726 16.3247 11.7632C17.2418 10.8539 17.7003 9.76291 17.7003 8.49022C17.7003 7.21756 17.2385 6.12982 16.3148 5.22701C15.3911 4.32418 14.2829 3.87276 12.9901 3.87276C11.6973 3.87276 10.5924 4.32743 9.67526 5.23675C8.75819 6.14608 8.29965 7.23709 8.29965 8.50978C8.29965 9.78244 8.7615 10.8702 9.68519 11.773C10.6089 12.6758 11.7171 13.1272 13.0099 13.1272ZM12.9877 12.0861C11.9724 12.0861 11.1135 11.7363 10.411 11.0366C9.70849 10.337 9.35726 9.48739 9.35726 8.48787C9.35726 7.48836 9.7126 6.64282 10.4233 5.95124C11.134 5.25969 11.997 4.91392 13.0123 4.91392C14.0276 4.91392 14.8865 5.26373 15.589 5.96337C16.2915 6.66303 16.6427 7.51262 16.6427 8.51213C16.6427 9.51164 16.2874 10.3572 15.5767 11.0488C14.866 11.7403 14.003 12.0861 12.9877 12.0861ZM13.0024 17C10.2692 17 7.76108 16.2875 5.4782 14.8624C3.19529 13.4374 1.41939 11.5349 0.150502 9.15483C0.09956 9.06364 0.0617462 8.96174 0.037061 8.84912C0.0123536 8.73651 0 8.62013 0 8.5C0 8.37987 0.0123536 8.26349 0.037061 8.15088C0.0617462 8.03826 0.09956 7.93636 0.150502 7.84517C1.41939 5.46515 3.19448 3.56261 5.47577 2.13755C7.75707 0.712518 10.2643 0 12.9976 0C15.7308 0 18.2389 0.712518 20.5218 2.13755C22.8047 3.56261 24.5806 5.46515 25.8495 7.84517C25.9004 7.93636 25.9383 8.03826 25.9629 8.15088C25.9876 8.26349 26 8.37987 26 8.5C26 8.62013 25.9876 8.73651 25.9629 8.84912C25.9383 8.96174 25.9004 9.06364 25.8495 9.15483C24.5806 11.5349 22.8055 13.4374 20.5242 14.8624C18.2429 16.2875 15.7357 17 13.0024 17ZM12.9944 15.9941C15.5918 15.9941 17.9715 15.318 20.1335 13.9659C22.2955 12.6138 23.9462 10.7918 25.0855 8.5C23.9462 6.20818 22.2974 4.38622 20.1391 3.03411C17.9809 1.68198 15.603 1.00591 13.0056 1.00591C10.4082 1.00591 8.02846 1.68198 5.86647 3.03411C3.70449 4.38622 2.05129 6.20818 0.906867 8.5C2.05129 10.7918 3.70263 12.6138 5.8609 13.9659C8.01914 15.318 10.397 15.9941 12.9944 15.9941Z" fill="#374254"/>
<path d="M16.3247 11.7632L11.3961 6.79249L11.396 6.79255L16.3247 11.7632ZM16.3148 5.22701L11.4219 10.233L11.422 10.233L16.3148 5.22701ZM9.67526 5.23675L4.74662 0.265994L4.74656 0.266053L9.67526 5.23675ZM9.68519 11.773L14.5781 6.76704L14.578 6.76698L9.68519 11.773ZM10.411 11.0366L5.47119 15.9963L5.47134 15.9965L10.411 11.0366ZM10.4233 5.95124L5.54164 0.934324L5.54148 0.934477L10.4233 5.95124ZM15.589 5.96337L20.5288 1.00368L20.5287 1.00353L15.589 5.96337ZM15.5767 11.0488L20.4584 16.0657L20.4585 16.0655L15.5767 11.0488ZM5.4782 14.8624L1.7715 20.8005L1.77151 20.8005L5.4782 14.8624ZM0.150502 9.15483L6.32747 5.86163L6.29512 5.80096L6.26158 5.74093L0.150502 9.15483ZM0.037061 8.84912L6.87472 7.35029L6.87443 7.34901L0.037061 8.84912ZM0.037061 8.15088L6.87443 9.65099L6.87472 9.64971L0.037061 8.15088ZM0.150502 7.84517L6.26158 11.2591L6.29512 11.199L6.32747 11.1384L0.150502 7.84517ZM5.47577 2.13755L1.76723 -3.79934L1.76718 -3.79931L5.47577 2.13755ZM20.5218 2.13755L24.2285 -3.80049L24.2285 -3.8005L20.5218 2.13755ZM25.8495 7.84517L19.6725 11.1384L19.7049 11.199L19.7384 11.2591L25.8495 7.84517ZM25.9629 8.15088L19.1253 9.64971L19.1256 9.65099L25.9629 8.15088ZM25.9629 8.84912L19.1256 7.34901L19.1253 7.35029L25.9629 8.84912ZM25.8495 9.15483L19.7384 5.74093L19.7049 5.80096L19.6725 5.86163L25.8495 9.15483ZM20.5242 14.8624L24.2328 20.7993L24.2328 20.7993L20.5242 14.8624ZM20.1335 13.9659L16.4218 8.03098L16.4218 8.03101L20.1335 13.9659ZM25.0855 8.5L31.3537 11.616L32.9027 8.5L31.3537 5.38396L25.0855 8.5ZM20.1391 3.03411L16.4227 8.9661L16.4228 8.96615L20.1391 3.03411ZM5.86647 3.03411L9.57819 8.96902L9.57823 8.969L5.86647 3.03411ZM0.906867 8.5L-5.35575 5.37276L-6.91734 8.5L-5.35575 11.6272L0.906867 8.5ZM5.8609 13.9659L9.57727 8.0339L9.5772 8.03386L5.8609 13.9659ZM13.0099 20.1272C16.1468 20.1272 19.0238 18.9447 21.2534 16.7339L11.396 6.79255C11.534 6.65568 11.7846 6.46094 12.1445 6.31286C12.5042 6.16485 12.8181 6.12724 13.0099 6.12724V20.1272ZM21.2533 16.734C23.4741 14.5321 24.7003 11.6605 24.7003 8.49022H10.7003C10.7003 8.26611 10.7451 7.92706 10.9032 7.55074C11.0605 7.1765 11.2632 6.92424 11.3961 6.79249L21.2533 16.734ZM24.7003 8.49022C24.7003 5.30192 23.4563 2.41877 21.2076 0.220995L11.422 10.233C11.2839 10.0981 11.0738 9.83983 10.9107 9.45568C10.7467 9.06938 10.7003 8.72079 10.7003 8.49022H24.7003ZM21.2077 0.221054C18.9748 -1.96139 16.1098 -3.12724 12.9901 -3.12724V10.8728C12.8044 10.8728 12.4999 10.8366 12.1502 10.6942C11.8004 10.5517 11.5563 10.3643 11.4219 10.233L21.2077 0.221054ZM12.9901 -3.12724C9.85317 -3.12724 6.97618 -1.94468 4.74662 0.265994L14.6039 10.2075C14.4659 10.3444 14.2153 10.5391 13.8555 10.6871C13.4958 10.8352 13.1819 10.8728 12.9901 10.8728V-3.12724ZM4.74656 0.266053C2.52586 2.46799 1.29965 5.33953 1.29965 8.50978H15.2997C15.2997 8.73387 15.2549 9.0729 15.0968 9.44921C14.9395 9.82344 14.7368 10.0757 14.604 10.2075L4.74656 0.266053ZM1.29965 8.50978C1.29965 11.6981 2.54376 14.5812 4.79236 16.779L14.578 6.76698C14.7161 6.90189 14.9262 7.16017 15.0893 7.54431C15.2533 7.93061 15.2997 8.2792 15.2997 8.50978H1.29965ZM4.7923 16.7789C7.02518 18.9614 9.89016 20.1272 13.0099 20.1272V6.12724C13.1956 6.12724 13.5001 6.1634 13.8498 6.30584C14.1996 6.44833 14.4437 6.6357 14.5781 6.76704L4.7923 16.7789ZM12.9877 5.08609C13.2991 5.08609 13.7372 5.14317 14.2224 5.3408C14.711 5.53977 15.09 5.81727 15.3506 6.07679L5.47134 15.9965C7.52066 18.0374 10.1707 19.0861 12.9877 19.0861V5.08609ZM15.3508 6.07694C15.6034 6.32853 15.8847 6.70444 16.0896 7.20028C16.2942 7.69497 16.3573 8.15057 16.3573 8.48787H2.35726C2.35726 11.3318 3.43786 13.9711 5.47119 15.9963L15.3508 6.07694ZM16.3573 8.48787C16.3573 8.83528 16.2915 9.30587 16.077 9.81612C15.8621 10.3275 15.5677 10.7125 15.3051 10.968L5.54148 0.934477C3.46445 2.95564 2.35726 5.6157 2.35726 8.48787H16.3573ZM15.3049 10.9682C15.0491 11.2171 14.6798 11.4817 14.207 11.6711C13.7374 11.8593 13.3141 11.9139 13.0123 11.9139V-2.08608C10.2222 -2.08608 7.59356 -1.06227 5.54164 0.934324L15.3049 10.9682ZM13.0123 11.9139C12.7009 11.9139 12.2628 11.8568 11.7776 11.6592C11.289 11.4602 10.91 11.1827 10.6494 10.9232L20.5287 1.00353C18.4793 -1.03745 15.8293 -2.08608 13.0123 -2.08608V11.9139ZM10.6492 10.9231C10.3966 10.6715 10.1153 10.2956 9.91036 9.79973C9.70584 9.30504 9.64275 8.84944 9.64275 8.51213H23.6427C23.6427 5.66822 22.5621 3.02885 20.5288 1.00368L10.6492 10.9231ZM9.64275 8.51213C9.64275 8.16472 9.70852 7.69412 9.92295 7.18388C10.1379 6.67247 10.4323 6.28753 10.6949 6.03199L20.4585 16.0655C22.5355 14.0444 23.6427 11.3843 23.6427 8.51213H9.64275ZM10.6951 6.03184C10.9509 5.78291 11.3202 5.51832 11.793 5.3289C12.2626 5.14073 12.6859 5.08609 12.9877 5.08609V19.0861C15.7779 19.0861 18.4064 18.0623 20.4584 16.0657L10.6951 6.03184ZM13.0024 10C11.5581 10 10.3377 9.64403 9.18488 8.92439L1.77151 20.8005C5.18443 22.9309 8.98023 24 13.0024 24V10ZM9.1849 8.9244C7.94544 8.1507 7.02035 7.16127 6.32747 5.86163L-6.02646 12.448C-4.18157 15.9084 -1.55486 18.7241 1.7715 20.8005L9.1849 8.9244ZM6.26158 5.74093C6.57815 6.3076 6.76751 6.86124 6.87472 7.35029L-6.80059 10.3479C-6.64402 11.0622 -6.37903 11.8197 -5.96058 12.5687L6.26158 5.74093ZM6.87443 7.34901C6.96227 7.74935 7 8.13685 7 8.5H-7C-7 9.10342 -6.93756 9.72367 -6.80031 10.3492L6.87443 7.34901ZM7 8.5C7 8.86316 6.96227 9.25065 6.87443 9.65099L-6.80031 6.65077C-6.93756 7.27633 -7 7.89658 -7 8.5H7ZM6.87472 9.64971C6.76751 10.1388 6.57815 10.6924 6.26158 11.2591L-5.96058 4.43127C-6.37903 5.18032 -6.64402 5.93777 -6.80059 6.65205L6.87472 9.64971ZM6.32747 11.1384C7.02102 9.83749 7.94623 8.84785 9.18436 8.07442L1.76718 -3.79931C-1.55727 -1.72262 -4.18224 1.09282 -6.02646 4.55198L6.32747 11.1384ZM9.18432 8.07444C10.3346 7.35592 11.5533 7 12.9976 7V-7C8.97536 -7 5.17955 -5.93089 1.76723 -3.79934L9.18432 8.07444ZM12.9976 7C14.4419 7 15.6623 7.35597 16.8151 8.07561L24.2285 -3.8005C20.8156 -5.93093 17.0198 -7 12.9976 -7V7ZM16.8151 8.0756C18.0546 8.84931 18.9796 9.83873 19.6725 11.1384L32.0265 4.55198C30.1816 1.09157 27.5549 -1.72408 24.2285 -3.80049L16.8151 8.0756ZM19.7384 11.2591C19.4219 10.6924 19.2325 10.1388 19.1253 9.64971L32.8006 6.65205C32.644 5.93775 32.379 5.1803 31.9606 4.43127L19.7384 11.2591ZM19.1256 9.65099C19.0377 9.25061 19 8.86311 19 8.5H33C33 7.89662 32.9376 7.27637 32.8003 6.65077L19.1256 9.65099ZM19 8.5C19 8.13689 19.0377 7.74939 19.1256 7.34901L32.8003 10.3492C32.9376 9.72363 33 9.10338 33 8.5H19ZM19.1253 7.35029C19.2325 6.86122 19.4219 6.30758 19.7384 5.74093L31.9606 12.5687C32.379 11.8197 32.644 11.0623 32.8006 10.3479L19.1253 7.35029ZM19.6725 5.86163C18.979 7.16252 18.0538 8.15216 16.8156 8.92558L24.2328 20.7993C27.5573 18.7226 30.1822 15.9072 32.0265 12.448L19.6725 5.86163ZM16.8157 8.92556C15.6654 9.64408 14.4467 10 13.0024 10V24C17.0246 24 20.8204 22.9309 24.2328 20.7993L16.8157 8.92556ZM12.9944 22.9941C16.8787 22.9941 20.5487 21.9625 23.8453 19.9008L16.4218 8.03101C15.3944 8.67355 14.305 8.99409 12.9944 8.99409V22.9941ZM23.8452 19.9008C27.1076 17.8605 29.6411 15.061 31.3537 11.616L18.8173 5.38396C18.2512 6.52262 17.4834 7.36706 16.4218 8.03098L23.8452 19.9008ZM31.3537 5.38396C29.6427 1.94215 27.1134 -0.856864 23.8554 -2.89793L16.4228 8.96615C17.4813 9.6293 18.2496 10.4742 18.8173 11.616L31.3537 5.38396ZM23.8555 -2.89789C20.5601 -4.9624 16.8899 -5.99409 13.0056 -5.99409V8.00591C14.3161 8.00591 15.4016 8.32635 16.4227 8.9661L23.8555 -2.89789ZM13.0056 -5.99409C9.12133 -5.99409 5.4513 -4.9625 2.15472 -2.90078L9.57823 8.969C10.6056 8.32645 11.695 8.00591 13.0056 8.00591V-5.99409ZM2.15476 -2.90081C-1.10502 -0.862128 -3.63845 1.93369 -5.35575 5.37276L7.16948 11.6272C7.74102 10.4827 8.514 9.63456 9.57819 8.96902L2.15476 -2.90081ZM-5.35575 11.6272C-3.64002 15.0632 -1.1108 17.8585 2.14459 19.8979L9.5772 8.03386C8.51606 7.36907 7.7426 6.52048 7.16948 5.37276L-5.35575 11.6272ZM2.14452 19.8979C5.43985 21.9624 9.11006 22.9941 12.9944 22.9941V8.99409C11.6839 8.99409 10.5984 8.67365 9.57727 8.0339L2.14452 19.8979Z" fill="#2C3E50" mask="url(#path-1-inside-1_418_1728)"/>
</svg>
