<?xml version="1.0" encoding="UTF-8" standalone="no"?>
<svg
   width="91"
   height="90"
   viewBox="0 0 91 90"
   fill="none"
   version="1.1"
   id="svg23"
   sodipodi:docname="vite.svg"
   xml:space="preserve"
   inkscape:version="1.2.2 (732a01da63, 2022-12-09)"
   xmlns:inkscape="http://www.inkscape.org/namespaces/inkscape"
   xmlns:sodipodi="http://sodipodi.sourceforge.net/DTD/sodipodi-0.dtd"
   xmlns="http://www.w3.org/2000/svg"
   xmlns:svg="http://www.w3.org/2000/svg"><defs
     id="defs27" /><sodipodi:namedview
     id="namedview25"
     pagecolor="#ffffff"
     bordercolor="#000000"
     borderopacity="0.25"
     inkscape:showpageshadow="2"
     inkscape:pageopacity="0.0"
     inkscape:pagecheckerboard="0"
     inkscape:deskcolor="#d1d1d1"
     showgrid="false"
     inkscape:zoom="6.5132391"
     inkscape:cx="52.201369"
     inkscape:cy="46.827699"
     inkscape:window-width="1920"
     inkscape:window-height="1009"
     inkscape:window-x="-8"
     inkscape:window-y="-8"
     inkscape:window-maximized="1"
     inkscape:current-layer="svg23" /><mask
     id="mask0_484_770"
     style="mask-type:alpha"
     maskUnits="userSpaceOnUse"
     x="0"
     y="0"
     width="91"
     height="90"><rect
       x="0.253906"
       width="90.4225"
       height="89.7143"
       fill="#D9D9D9"
       id="rect2" /></mask><ellipse
     style="fill:#ffffff;fill-opacity:1;stroke-width:0.977488"
     id="path251"
     cx="45.520012"
     cy="44.382477"
     rx="42.546814"
     ry="42.54681" /><g
     mask="url(#mask0_484_770)"
     id="g21"
     transform="matrix(1.1357278,0,0,1.1357278,-6.2685249,-6.1854526)"><path
       d="m 45.4631,5.98096 c -21.6399,0 -39.18087,17.40444 -39.18087,38.87574 0,21.4721 17.54097,38.8766 39.18087,38.8766 21.6399,0 39.1818,-17.4036 39.1818,-38.8766 0,-21.4713 -17.5419,-38.87574 -39.1818,-38.87574 z m 0,74.32204 c -19.731,0 -35.7235,-15.8698 -35.7235,-35.4463 0,-19.5756 15.9925,-35.4446 35.7235,-35.4446 19.7311,0 35.7262,15.869 35.7262,35.4446 0,19.5765 -15.9951,35.4463 -35.7262,35.4463 z"
       fill="#000000"
       id="path5" /><path
       d="M 59.5696,73.3052 C 55.5099,71.9303 50.7991,71.166 45.3772,71.166 c -5.3402,0 -9.9883,0.7419 -14.0071,2.0813 4.2756,2.0779 9.0778,3.2455 14.1585,3.2455 5.0338,0 9.795,-1.1486 14.041,-3.1876 z"
       fill="#000000"
       id="path7" /><path
       d="m 27.9763,71.3318 c 5.2591,-1.8758 11.1642,-2.932 17.4008,-2.932 6.3116,0 12.281,1.0839 17.5898,3.0028 1.4284,-0.9128 2.7802,-1.931 4.0415,-3.0511 -6.436,-2.5667 -13.8017,-4.0236 -21.6321,-4.0236 -7.7478,0 -15.0368,1.4301 -21.4232,3.9441 1.2561,1.1236 2.6018,2.1435 4.0232,3.0598 z"
       fill="#000000"
       id="path9" /><path
       d="m 45.3769,48.053 c -10.4295,0 -21.2316,2.5891 -30.3085,6.9392 0.5248,1.4975 1.1559,2.944 1.8871,4.3319 8.4432,-4.1091 18.6995,-6.5394 28.4214,-6.5394 9.8151,0 20.1698,2.4804 28.6574,6.6594 0.7399,-1.3844 1.3779,-2.8284 1.9088,-4.325 C 66.8114,50.693 55.9057,48.053 45.3769,48.053 Z"
       fill="#000000"
       id="path11" /><path
       d="m 35.5301,58.9827 c 0,-0.9784 1.7905,-1.8386 4.4906,-2.3308 -7.5841,0.6028 -14.9428,2.5252 -21.4162,5.4451 0.8626,1.2945 1.8149,2.5235 2.8507,3.6781 5.3566,-2.381 11.394,-4.0046 17.6089,-4.6557 -2.1578,-0.5096 -3.534,-1.2774 -3.534,-2.1367 z"
       fill="#000000"
       id="path13" /><path
       d="m 50.9932,56.7212 c 2.4955,0.5043 4.1302,1.3291 4.1302,2.2618 0,0.8783 -1.4328,1.6582 -3.668,2.166 6.3463,0.6935 12.4864,2.4051 17.9109,4.8898 1.0524,-1.1435 2.0212,-2.3664 2.8986,-3.6531 C 65.8602,59.4053 58.552,57.4129 50.9932,56.7212 Z"
       fill="#000000"
       id="path15" /><path
       d="m 13.3984,47.0478 c 0.1289,1.6365 0.3822,3.2351 0.7504,4.7922 9.4503,-4.5159 20.9949,-7.219 31.2286,-7.219 10.2972,0 21.9872,2.6617 31.5446,7.1533 0.3638,-1.5502 0.6128,-3.1427 0.739,-4.7689 -9.95,-4.4467 -21.6382,-7.0894 -32.2836,-7.0894 -10.5819,-8e-4 -22.1361,2.6686 -31.979,7.1318 z"
       fill="#000000"
       id="path17" /><path
       d="m 46.5282,58.546 c 0,0 -0.3734,0.5613 -1.1298,0.5613 -0.7573,0 -1.0654,-0.5613 -1.0654,-0.5613 V 12.5601 h 0.1079 L 56.52,24.7526 46.5282,24.7233 Z"
       fill="#000000"
       id="path19" /></g></svg>
