<?xml version="1.0" encoding="UTF-8" standalone="no"?>
<!-- Written by Treer (gitlab.com/Treer) -->

<svg
   version="1.1"
   width="600"
   height="600"
   fill="white"
   id="svg15"
   sodipodi:docname="avatarUser.svg"
   inkscape:version="1.2.2 (732a01da63, 2022-12-09)"
   xmlns:inkscape="http://www.inkscape.org/namespaces/inkscape"
   xmlns:sodipodi="http://sodipodi.sourceforge.net/DTD/sodipodi-0.dtd"
   xmlns="http://www.w3.org/2000/svg"
   xmlns:svg="http://www.w3.org/2000/svg">
  <sodipodi:namedview
     id="namedview17"
     pagecolor="#ffffff"
     bordercolor="#000000"
     borderopacity="0.25"
     inkscape:showpageshadow="2"
     inkscape:pageopacity="0.0"
     inkscape:pagecheckerboard="0"
     inkscape:deskcolor="#d1d1d1"
     showgrid="false"
     inkscape:zoom="0.97698587"
     inkscape:cx="262.0304"
     inkscape:cy="374.62159"
     inkscape:window-width="1920"
     inkscape:window-height="1009"
     inkscape:window-x="-8"
     inkscape:window-y="-8"
     inkscape:window-maximized="1"
     inkscape:current-layer="svg15" />
  <title
     id="title2">Abstract user icon</title>
  <defs
     id="defs7">
    <clipPath
       id="circular-border">
      <circle
         cx="300"
         cy="300"
         r="250"
         id="circle4" />
    </clipPath>
  </defs>
  <path
     id="path201"
     style="stroke-width:1.0714;fill:#4d4d4d"
     d="M 299.99414 -0.001953125 A 300.00171 299.98474 0 0 0 -0.0078125 299.98242 A 300.00171 299.98474 0 0 0 101.66797 524.44336 A 203.57257 203.56106 0 0 1 108.69922 498.20508 A 203.57257 203.56106 0 0 1 123.69531 466.04688 A 203.57257 203.56106 0 0 1 144.04883 436.98047 A 203.57257 203.56106 0 0 1 169.14062 411.89062 A 203.57257 203.56106 0 0 1 198.20898 391.53711 A 203.57257 203.56106 0 0 1 230.36914 376.54102 A 203.57257 203.56106 0 0 1 264.64453 367.35742 A 203.57257 203.56106 0 0 1 299.99414 364.26562 A 203.57257 203.56106 0 0 1 312.28516 364.63672 A 203.57257 203.56106 0 0 1 324.5332 365.75 A 203.57257 203.56106 0 0 1 336.68945 367.59961 A 203.57257 203.56106 0 0 1 348.71289 370.17969 A 203.57257 203.56106 0 0 1 360.55859 373.48242 A 203.57257 203.56106 0 0 1 372.18164 377.49414 A 203.57257 203.56106 0 0 1 383.54297 382.19922 A 203.57257 203.56106 0 0 1 394.59961 387.58203 A 203.57257 203.56106 0 0 1 405.31055 393.62305 A 203.57257 203.56106 0 0 1 415.63672 400.29883 A 203.57257 203.56106 0 0 1 425.54102 407.58594 A 203.57257 203.56106 0 0 1 434.98828 415.45898 A 203.57257 203.56106 0 0 1 443.94141 423.88672 A 203.57257 203.56106 0 0 1 452.37109 432.83984 A 203.57257 203.56106 0 0 1 460.24414 442.28711 A 203.57257 203.56106 0 0 1 467.53125 452.19141 A 203.57257 203.56106 0 0 1 474.20898 462.51758 A 203.57257 203.56106 0 0 1 480.24805 473.22656 A 203.57257 203.56106 0 0 1 485.63281 484.2832 A 203.57257 203.56106 0 0 1 490.33789 495.64258 A 203.57257 203.56106 0 0 1 494.34961 507.26562 A 203.57257 203.56106 0 0 1 497.65234 519.11133 A 203.57257 203.56106 0 0 1 498.82031 524.54883 A 300.00171 299.98474 0 0 0 599.99609 299.98242 A 300.00171 299.98474 0 0 0 299.99414 -0.001953125 z M 299.99414 117.84961 A 107.14346 107.13741 0 0 1 308.8418 118.21484 A 107.14346 107.13741 0 0 1 317.62891 119.31055 A 107.14346 107.13741 0 0 1 326.29688 121.12695 A 107.14346 107.13741 0 0 1 334.7832 123.6543 A 107.14346 107.13741 0 0 1 343.0332 126.87305 A 107.14346 107.13741 0 0 1 350.98828 130.76172 A 107.14346 107.13741 0 0 1 358.5957 135.29492 A 107.14346 107.13741 0 0 1 365.80273 140.43945 A 107.14346 107.13741 0 0 1 372.56055 146.16406 A 107.14346 107.13741 0 0 1 378.82227 152.42383 A 107.14346 107.13741 0 0 1 384.54492 159.18164 A 107.14346 107.13741 0 0 1 389.69141 166.38867 A 107.14346 107.13741 0 0 1 394.22461 173.99414 A 107.14346 107.13741 0 0 1 398.11328 181.95117 A 107.14346 107.13741 0 0 1 401.33203 190.19922 A 107.14346 107.13741 0 0 1 403.85938 198.68555 A 107.14346 107.13741 0 0 1 405.67578 207.35352 A 107.14346 107.13741 0 0 1 406.77148 216.13867 A 107.14346 107.13741 0 0 1 407.13867 224.98633 A 107.14346 107.13741 0 0 1 404.45117 248.82812 A 107.14346 107.13741 0 0 1 396.52734 271.47266 A 107.14346 107.13741 0 0 1 383.76172 291.78516 A 107.14346 107.13741 0 0 1 366.79688 308.75 A 107.14346 107.13741 0 0 1 346.48242 321.51367 A 107.14346 107.13741 0 0 1 323.83594 329.4375 A 107.14346 107.13741 0 0 1 299.99414 332.125 A 107.14346 107.13741 0 0 1 276.15234 329.4375 A 107.14346 107.13741 0 0 1 253.50586 321.51367 A 107.14346 107.13741 0 0 1 233.19141 308.75 A 107.14346 107.13741 0 0 1 216.22656 291.78516 A 107.14346 107.13741 0 0 1 203.46094 271.47266 A 107.14346 107.13741 0 0 1 195.53711 248.82812 A 107.14346 107.13741 0 0 1 192.85156 224.98633 A 107.14346 107.13741 0 0 1 195.53711 201.14648 A 107.14346 107.13741 0 0 1 203.46094 178.50195 A 107.14346 107.13741 0 0 1 216.22656 158.1875 A 107.14346 107.13741 0 0 1 233.19141 141.22266 A 107.14346 107.13741 0 0 1 253.50586 128.45898 A 107.14346 107.13741 0 0 1 276.15234 120.53516 A 107.14346 107.13741 0 0 1 299.99414 117.84961 z " />
</svg>
