<svg width="116" height="81" viewBox="0 0 116 81" fill="none" xmlns="http://www.w3.org/2000/svg">
<path d="M19.2611 27.6048C21.7624 21.2964 24.2671 14.9879 26.7685 8.67951C27.625 7.2731 29.7748 4.19311 33.5934 2.74217C34.856 2.26347 36.0299 2.0668 37.0058 2C51.3381 2.12246 65.6704 2.24863 80.0027 2.37108C81.2141 2.52694 85.466 3.24684 88.5338 7.19517C89.8954 8.9504 90.5711 10.7576 90.9225 12.0193C92.076 14.962 95.2052 22.6916 98.7712 28.347C99.1056 28.8739 100.471 31.0188 102.354 33.7277C105.098 37.6723 105.35 37.6574 106.108 38.9228C107.988 42.0659 108.213 45.8621 108.497 53.3951C108.858 63.1138 107.667 64.9321 107.132 65.6409C105.255 68.1197 102.399 68.8396 100.655 69.0808C86.0496 69.2849 71.26 69.3777 56.2862 69.3517C42.5954 69.3257 29.0582 69.1996 15.678 68.9806C13.9445 68.7469 10.7811 68.0121 8.85311 65.2698C7.37893 63.1732 7.39599 60.0115 7.48813 53.7662C7.56662 48.4671 7.60415 45.8213 8.51187 43.0048C9.60726 39.5982 11.2248 37.3457 13.2893 34.4698C15.521 31.3602 17.6948 29.0928 19.2611 27.6048Z" stroke="white" stroke-width="4" stroke-miterlimit="10"/>
<path d="M23.5291 50.0551C26.9215 50.0551 29.6715 47.0645 29.6715 43.3756C29.6715 39.6866 26.9215 36.696 23.5291 36.696C20.1368 36.696 17.3867 39.6866 17.3867 43.3756C17.3867 47.0645 20.1368 50.0551 23.5291 50.0551Z" stroke="white" stroke-width="4" stroke-miterlimit="10"/>
<path d="M92.8065 50.0551C96.1988 50.0551 98.9489 47.0645 98.9489 43.3756C98.9489 39.6866 96.1988 36.696 92.8065 36.696C89.4141 36.696 86.6641 39.6866 86.6641 43.3756C86.6641 47.0645 89.4141 50.0551 92.8065 50.0551Z" stroke="white" stroke-width="4" stroke-miterlimit="10"/>
<path d="M31.0391 60.8169C49.125 60.6944 67.211 60.5683 85.297 60.4458" stroke="white" stroke-width="4" stroke-miterlimit="10" stroke-linecap="round"/>
<path d="M36.1602 53.7664H79.4983" stroke="white" stroke-width="4" stroke-miterlimit="10" stroke-linecap="round"/>
<path d="M15.6797 69.3518H29.6707V75.6083C29.6707 77.4823 28.2716 79 26.5518 79H18.7748C17.0651 79 15.6797 77.4934 15.6797 75.6343V69.3518Z" stroke="white" stroke-width="4" stroke-miterlimit="10"/>
<path d="M86.6641 69.3518H100.655V75.6083C100.655 77.4823 99.256 79 97.5361 79H89.7592C88.0495 79 86.6641 77.4934 86.6641 75.6343V69.3518Z" stroke="white" stroke-width="4" stroke-miterlimit="10"/>
<path d="M14.4899 28.7177C14.3773 25.9977 14.2612 23.2739 14.1486 20.5539C13.3911 20.2162 8.51809 18.127 4.93501 20.5539C4.54941 20.8137 3.5871 21.4853 2.88754 22.7804C2.11292 24.2202 1.52257 26.6953 2.5463 27.9756C3.11959 28.6955 4.52893 28.714 7.32373 28.7177C10.6645 28.7252 12.3332 28.7252 12.4424 28.7177C12.9782 28.6769 26.7918 28.5656 54.4155 28.3467C58.1112 28.317 56.3675 28.3429 92.9762 28.3467C93.5939 28.3467 103.278 28.3467 113.451 28.3467C113.56 27.5896 113.656 26.4133 113.451 25.0069C113.267 23.7526 113.055 22.2943 112.086 21.2961C111.639 20.8359 110.915 20.3572 108.332 20.1828C106.868 20.0826 104.756 20.0789 102.19 20.5539V28.3467" stroke="white" stroke-width="4" stroke-miterlimit="10"/>
</svg>
