<?xml version="1.0" encoding="utf-8"?>
<!-- Generator: Adobe Illustrator 27.8.1, SVG Export Plug-In . SVG Version: 6.00 Build 0)  -->
<svg version="1.1"
	 id="svg8" xmlns:svg="http://www.w3.org/2000/svg" xmlns:sodipodi="http://sodipodi.sourceforge.net/DTD/sodipodi-0.dtd" xmlns:inkscape="http://www.inkscape.org/namespaces/inkscape"
	 xmlns="http://www.w3.org/2000/svg" xmlns:xlink="http://www.w3.org/1999/xlink" x="0px" y="0px" viewBox="0 0 125 125"
	 style="enable-background:new 0 0 125 125;" xml:space="preserve">
<style type="text/css">
	.st0{fill:#FFFFFF;}
</style>
<sodipodi:namedview  bordercolor="#000000" borderopacity="0.25" id="namedview8" inkscape:current-layer="svg8" inkscape:cx="13.728814" inkscape:cy="29.345339" inkscape:deskcolor="#d1d1d1" inkscape:pagecheckerboard="0" inkscape:pageopacity="0.0" inkscape:showpageshadow="2" inkscape:window-height="964" inkscape:window-maximized="1" inkscape:window-width="1920" inkscape:window-x="0" inkscape:window-y="25" inkscape:zoom="2.9135802" pagecolor="#ffffff">
	</sodipodi:namedview>
<path id="path8" sodipodi:nodetypes="ssssscsssssssscsssssssscssssssssssssssssssssssssssssssssssssssss" class="st0" d="M14.4,95.3
	c-2-0.4-3.8-1.6-5-3.2C7,89,7,84.7,9.4,81.6c1.5-2,3.7-3.2,6.3-3.3c4.1-0.3,7.8,2.5,8.9,6.5c0.3,1.1,0.3,3.1,0,4.2
	c-0.7,2.5-2.3,4.5-4.6,5.6c-0.7,0.3-1.5,0.6-2,0.7C16.9,95.5,15.3,95.5,14.4,95.3L14.4,95.3z M41.3,94c-2-0.5-3.8-2-4.7-3.8
	c-0.6-1.3-0.8-2.1-0.8-3.4c0-3.2,1.9-5.9,5-7l0.8-0.3l34.5,0c31.7,0,34.6,0,35.4,0.2c3.4,0.7,5.8,3.7,5.8,7.2c0,3.4-2.3,6.3-5.5,7.1
	c-0.9,0.2-1.4,0.2-35.3,0.2C43.1,94.2,42.1,94.2,41.3,94z M14,69c-2.9-0.8-5.1-2.8-6.1-5.7c-0.3-0.8-0.3-1.1-0.3-2.7
	c0-1.6,0-1.8,0.3-2.7c1-2.9,3.3-5,6.2-5.7c1.1-0.3,3-0.2,4.2,0.1c2.8,0.7,5,2.7,5.9,5.4c1.8,4.8-1,10.1-6,11.3
	C17.1,69.3,15.2,69.3,14,69z M41.3,67.8c-1.3-0.3-2.3-0.9-3.3-2c-1.5-1.5-2.2-3.1-2.2-5.2c0-3.4,2.2-6.2,5.5-7.1
	c0.7-0.2,2.2-0.2,35.3-0.2c38.1,0,35-0.1,36.7,0.7c3.8,1.8,5.3,6.3,3.3,10.1c-0.6,1.2-2,2.5-3.1,3.1C111.7,68,115,68,76.5,68
	C46.7,68,41.8,67.9,41.3,67.8L41.3,67.8z M15,43c-1.9-0.3-3.4-1-4.8-2.5C9,39.3,8.5,38.6,8,37.2c-0.5-1.4-0.6-3.3-0.2-4.7
	c0.6-2.5,2.2-4.5,4.5-5.7c1.5-0.7,2-0.9,3.9-0.9c1.6,0,1.8,0,2.7,0.4c1.4,0.5,2.2,1,3.3,2.2c0.8,0.8,1.1,1.3,1.5,1.9
	c1.2,2.3,1.4,4.7,0.5,7.1C22.8,41.2,18.9,43.5,15,43z M41.9,41.7c-2-0.3-4-1.7-5.1-3.5c-0.6-1.1-0.9-2-1-3.4
	c-0.1-1.4,0.1-2.4,0.7-3.7c0.6-1.2,2-2.6,3.2-3.2c1.7-0.8-1.4-0.8,36.9-0.8c38.4,0,35-0.1,36.8,0.8c1.1,0.6,2.5,1.9,3.1,3.1
	c1.9,3.7,0.5,8.2-3.2,10.1c-0.4,0.2-1,0.4-1.3,0.6c-0.6,0.2-1.8,0.2-35.1,0.2C57.1,41.8,42.2,41.8,41.9,41.7z"/>
</svg>
