<svg width="214" height="157" viewBox="0 0 214 157" fill="none" xmlns="http://www.w3.org/2000/svg">
<mask id="mask0_418_1573" style="mask-type:alpha" maskUnits="userSpaceOnUse" x="54" y="0" width="91" height="90">
<rect x="54.2539" width="90.4225" height="89.7143" fill="#D9D9D9"/>
</mask>
<g mask="url(#mask0_418_1573)">
<path d="M99.4631 5.98096C77.8232 5.98096 60.2822 23.3854 60.2822 44.8567C60.2822 66.3288 77.8232 83.7333 99.4631 83.7333C121.103 83.7333 138.645 66.3297 138.645 44.8567C138.645 23.3854 121.103 5.98096 99.4631 5.98096ZM99.4631 80.303C79.7321 80.303 63.7396 64.4332 63.7396 44.8567C63.7396 25.2811 79.7321 9.4121 99.4631 9.4121C119.194 9.4121 135.189 25.2811 135.189 44.8567C135.189 64.4332 119.194 80.303 99.4631 80.303Z" fill="black"/>
<path d="M113.57 73.3052C109.51 71.9303 104.799 71.166 99.3772 71.166C94.037 71.166 89.3889 71.9079 85.3701 73.2473C89.6457 75.3252 94.4479 76.4928 99.5286 76.4928C104.562 76.4928 109.324 75.3442 113.57 73.3052Z" fill="black"/>
<path d="M81.9763 71.3318C87.2354 69.456 93.1405 68.3998 99.3771 68.3998C105.689 68.3998 111.658 69.4837 116.967 71.4026C118.395 70.4898 119.747 69.4716 121.008 68.3515C114.572 65.7848 107.207 64.3279 99.3763 64.3279C91.6285 64.3279 84.3395 65.758 77.9531 68.272C79.2092 69.3956 80.5549 70.4155 81.9763 71.3318Z" fill="black"/>
<path d="M99.3769 48.053C88.9474 48.053 78.1453 50.6421 69.0684 54.9922C69.5932 56.4897 70.2243 57.9362 70.9555 59.3241C79.3987 55.215 89.655 52.7847 99.3769 52.7847C109.192 52.7847 119.547 55.2651 128.034 59.4441C128.774 58.0597 129.412 56.6157 129.943 55.1191C120.811 50.693 109.906 48.053 99.3769 48.053Z" fill="black"/>
<path d="M89.5301 58.9827C89.5301 58.0043 91.3206 57.1441 94.0207 56.6519C86.4366 57.2547 79.0779 59.1771 72.6045 62.097C73.4671 63.3915 74.4194 64.6205 75.4552 65.7751C80.8118 63.3941 86.8492 61.7705 93.0641 61.1194C90.9063 60.6098 89.5301 59.842 89.5301 58.9827Z" fill="black"/>
<path d="M104.993 56.7212C107.489 57.2255 109.123 58.0503 109.123 58.983C109.123 59.8613 107.691 60.6412 105.455 61.149C111.802 61.8425 117.942 63.5541 123.366 66.0388C124.419 64.8953 125.387 63.6724 126.265 62.3857C119.86 59.4053 112.552 57.4129 104.993 56.7212Z" fill="black"/>
<path d="M67.3984 47.0478C67.5273 48.6843 67.7806 50.2829 68.1488 51.84C77.5991 47.3241 89.1437 44.621 99.3774 44.621C109.675 44.621 121.365 47.2827 130.922 51.7743C131.286 50.2241 131.535 48.6316 131.661 47.0054C121.711 42.5587 110.023 39.916 99.3774 39.916C88.7955 39.9152 77.2413 42.5846 67.3984 47.0478Z" fill="black"/>
<path d="M100.528 58.546C100.528 58.546 100.155 59.1073 99.3984 59.1073C98.6411 59.1073 98.333 58.546 98.333 58.546V12.5601H98.4409L110.52 24.7526L100.528 24.7233V58.546Z" fill="black"/>
</g>
<mask id="mask1_418_1573" style="mask-type:alpha" maskUnits="userSpaceOnUse" x="0" y="79" width="214" height="78">
<rect y="79.2476" width="214" height="77.7524" fill="#D9D9D9"/>
</mask>
<g mask="url(#mask1_418_1573)">
<path d="M18.1721 108.529H18.0737L12.6596 100.486V112.749H9.64355V95.5803H12.8825L18.1486 103.699L23.413 95.5803H26.6519V112.749H23.6358V100.436L18.1721 108.529Z" fill="black"/>
<path d="M38.5669 99.7983H41.5829V112.749H38.5669V110.717C38.1395 111.344 37.6059 111.885 36.9644 112.337C36.3229 112.791 35.5012 113.019 34.4993 113.019C33.0205 113.019 31.8776 112.569 31.0724 111.67C30.2664 110.77 29.8643 109.56 29.8643 108.039V99.7983H32.8803V107.139C32.8803 108.151 33.1206 108.93 33.6028 109.477C34.085 110.024 34.7666 110.296 35.65 110.296C36.5153 110.296 37.2186 110.015 37.7574 109.451C38.297 108.89 38.5669 108.101 38.5669 107.091V99.7983Z" fill="black"/>
<path d="M47.6147 112.749H44.5986V99.7982H47.6147V101.83C47.8279 101.517 48.063 101.223 48.318 100.952C48.5713 100.68 48.869 100.436 49.205 100.221C49.5418 100.006 49.9127 99.838 50.3139 99.7145C50.7169 99.5901 51.1722 99.5288 51.6822 99.5288C53.1611 99.5288 54.3031 99.9787 55.1092 100.878C55.9143 101.777 56.3173 102.988 56.3173 104.508V112.749H53.3012V105.408C53.3012 104.396 53.061 103.617 52.5788 103.07C52.0966 102.524 51.4133 102.251 50.5307 102.251C49.6654 102.251 48.963 102.532 48.4233 103.096C47.8845 103.659 47.6147 104.446 47.6147 105.457V112.749Z" fill="black"/>
<path d="M59.2324 97.812V94.9915H62.4713V97.812H59.2324ZM59.3552 112.749V99.7984H62.3712V112.749H59.3552Z" fill="black"/>
<path d="M74.7082 112.368C73.883 112.818 72.8376 113.044 71.5685 113.044C70.5963 113.044 69.698 112.867 68.8719 112.517C68.0476 112.165 67.3321 111.682 66.7263 111.069C66.1196 110.455 65.6461 109.745 65.3049 108.935C64.9646 108.125 64.7939 107.256 64.7939 106.323C64.7939 105.391 64.9646 104.516 65.3049 103.699C65.6461 102.882 66.1196 102.162 66.7263 101.541C67.3321 100.919 68.052 100.429 68.885 100.069C69.7171 99.7093 70.6198 99.5288 71.592 99.5288C72.8281 99.5288 73.8543 99.7335 74.6699 100.142C75.4864 100.551 76.1984 101.091 76.8077 101.76L74.9537 103.748C74.4923 103.273 74.0023 102.886 73.4835 102.583C72.9639 102.28 72.325 102.129 71.5677 102.129C71.0237 102.129 70.5206 102.24 70.0601 102.461C69.5979 102.682 69.2027 102.981 68.8737 103.356C68.5438 103.733 68.2835 104.169 68.0938 104.668C67.9049 105.167 67.8109 105.703 67.8109 106.275C67.8109 106.863 67.9049 107.411 68.0938 107.918C68.2835 108.425 68.5516 108.867 68.898 109.243C69.2436 109.618 69.6553 109.916 70.1341 110.138C70.6119 110.358 71.1394 110.468 71.7156 110.468C72.4242 110.468 73.0457 110.317 73.5827 110.014C74.1181 109.713 74.6255 109.324 75.1025 108.85L76.9078 110.616C76.2645 111.335 75.5317 111.919 74.7082 112.368Z" fill="black"/>
<path d="M78.9355 97.812V94.9915H82.1736V97.812H78.9355ZM79.0591 112.749V99.7984H82.0752V112.749H79.0591Z" fill="black"/>
<path d="M98.205 109.143C97.8673 109.978 97.4138 110.685 96.8445 111.265C96.277 111.847 95.6259 112.284 94.8921 112.577C94.1583 112.873 93.4045 113.019 92.629 113.019C91.5584 113.019 90.6679 112.79 89.9603 112.333C89.2517 111.875 88.6668 111.343 88.2037 110.739L88.2298 116.674H85.2129V99.7982H88.2298V101.957C88.706 101.27 89.2987 100.694 90.0046 100.227C90.7114 99.762 91.5914 99.5288 92.6429 99.5288C93.4167 99.5288 94.1636 99.6756 94.8878 99.971C95.6111 100.265 96.2561 100.702 96.8245 101.283C97.3911 101.863 97.8472 102.57 98.1919 103.406C98.5375 104.239 98.7107 105.196 98.7107 106.275C98.7116 107.353 98.5427 108.309 98.205 109.143ZM95.3996 104.545C95.2011 104.029 94.9339 103.592 94.5962 103.232C94.2576 102.873 93.8624 102.595 93.4089 102.398C92.9554 102.201 92.4749 102.103 91.9631 102.103C91.4522 102.103 90.9656 102.201 90.5051 102.398C90.0438 102.595 89.6399 102.876 89.2935 103.243C88.9479 103.612 88.6703 104.05 88.4648 104.556C88.2594 105.064 88.1558 105.635 88.1558 106.273C88.1558 106.91 88.2594 107.482 88.4648 107.99C88.6703 108.497 88.9479 108.934 89.2935 109.302C89.639 109.67 90.0429 109.953 90.5051 110.148C90.9656 110.345 91.4522 110.442 91.9631 110.442C92.4749 110.442 92.9563 110.345 93.4089 110.148C93.8624 109.952 94.2585 109.673 94.5962 109.314C94.9339 108.954 95.2011 108.516 95.3996 108.002C95.5981 107.486 95.6955 106.909 95.6955 106.272C95.6955 105.635 95.5972 105.06 95.3996 104.545Z" fill="black"/>
<path d="M109.021 112.749V111.155C108.575 111.677 108.007 112.119 107.314 112.479C106.622 112.838 105.781 113.018 104.793 113.018C104.167 113.018 103.573 112.932 103.013 112.76C102.452 112.589 101.963 112.335 101.542 111.999C101.122 111.665 100.785 111.249 100.529 110.75C100.273 110.251 100.146 109.674 100.146 109.021V108.971C100.146 108.269 100.278 107.655 100.542 107.131C100.805 106.608 101.172 106.175 101.642 105.831C102.112 105.489 102.673 105.23 103.324 105.059C103.974 104.887 104.68 104.8 105.438 104.8C106.228 104.8 106.899 104.85 107.451 104.948C108.003 105.046 108.535 105.178 109.046 105.34V105.022C109.046 104.122 108.77 103.436 108.218 102.961C107.665 102.487 106.871 102.249 105.833 102.249C105.091 102.249 104.432 102.323 103.855 102.47C103.278 102.617 102.693 102.814 102.1 103.059L101.283 100.681C102.009 100.354 102.751 100.092 103.509 99.8958C104.266 99.6998 105.182 99.6013 106.253 99.6013C108.196 99.6013 109.639 100.08 110.579 101.036C111.519 101.993 111.988 103.337 111.988 105.071V112.748H109.021V112.749ZM109.094 107.256C108.714 107.108 108.266 106.985 107.746 106.887C107.227 106.789 106.679 106.74 106.103 106.74C105.163 106.74 104.429 106.92 103.902 107.279C103.375 107.64 103.112 108.155 103.112 108.825V108.874C103.112 109.496 103.354 109.97 103.841 110.296C104.327 110.623 104.924 110.786 105.633 110.786C106.127 110.786 106.585 110.721 107.006 110.59C107.425 110.46 107.792 110.275 108.106 110.037C108.418 109.802 108.662 109.515 108.835 109.179C109.008 108.844 109.095 108.472 109.095 108.063L109.094 107.256Z" fill="black"/>
<path d="M114.979 112.749V94.8445H117.995V112.749H114.979Z" fill="black"/>
<path d="M121.183 97.812V94.9915H124.421V97.812H121.183ZM121.305 112.749V99.7984H124.322V112.749H121.305Z" fill="black"/>
<path d="M137.276 112.749V110.591C136.799 111.261 136.202 111.833 135.487 112.308C134.771 112.782 133.888 113.018 132.836 113.018C132.063 113.018 131.315 112.872 130.591 112.576C129.869 112.283 129.228 111.846 128.668 111.264C128.109 110.684 127.657 109.977 127.311 109.143C126.966 108.308 126.793 107.352 126.793 106.273C126.793 105.194 126.961 104.237 127.299 103.404C127.635 102.569 128.083 101.862 128.644 101.281C129.202 100.702 129.848 100.264 130.578 99.9692C131.311 99.6747 132.063 99.527 132.836 99.527C133.904 99.527 134.791 99.7559 135.499 100.214C136.207 100.671 136.799 101.202 137.276 101.809V94.8428H140.292V112.747H137.276V112.749ZM137.017 104.557C136.812 104.051 136.536 103.613 136.192 103.244C135.847 102.876 135.444 102.595 134.985 102.399C134.524 102.202 134.049 102.104 133.555 102.104C133.044 102.104 132.565 102.198 132.113 102.386C131.66 102.575 131.263 102.848 130.918 103.208C130.573 103.568 130.302 104.005 130.104 104.52C129.908 105.036 129.809 105.62 129.809 106.274C129.809 106.911 129.908 107.488 130.104 108.003C130.302 108.517 130.573 108.956 130.918 109.316C131.263 109.675 131.661 109.953 132.113 110.15C132.566 110.346 133.044 110.444 133.555 110.444C134.048 110.444 134.523 110.346 134.985 110.15C135.443 109.953 135.846 109.671 136.192 109.304C136.537 108.936 136.812 108.499 137.017 107.991C137.223 107.484 137.325 106.912 137.325 106.274C137.325 105.637 137.223 105.065 137.017 104.557Z" fill="black"/>
<path d="M151.269 112.749V111.155C150.824 111.677 150.255 112.119 149.563 112.479C148.871 112.838 148.029 113.018 147.041 113.018C146.414 113.018 145.821 112.932 145.261 112.76C144.7 112.589 144.21 112.335 143.79 111.999C143.371 111.665 143.033 111.249 142.778 110.75C142.522 110.251 142.395 109.674 142.395 109.021V108.971C142.395 108.269 142.526 107.655 142.791 107.131C143.054 106.609 143.421 106.175 143.891 105.831C144.36 105.489 144.921 105.23 145.572 105.059C146.223 104.887 146.928 104.8 147.686 104.8C148.477 104.8 149.148 104.85 149.7 104.948C150.252 105.046 150.784 105.178 151.295 105.34V105.022C151.295 104.122 151.02 103.436 150.466 102.961C149.914 102.487 149.12 102.249 148.081 102.249C147.339 102.249 146.681 102.323 146.104 102.47C145.526 102.617 144.942 102.814 144.349 103.059L143.532 100.681C144.257 100.354 145 100.092 145.758 99.8958C146.515 99.6998 147.43 99.6013 148.501 99.6013C150.446 99.6013 151.888 100.08 152.827 101.036C153.767 101.993 154.237 103.337 154.237 105.071V112.748H151.269V112.749ZM151.343 107.256C150.963 107.108 150.514 106.985 149.995 106.887C149.476 106.789 148.927 106.74 148.35 106.74C147.412 106.74 146.678 106.92 146.151 107.279C145.625 107.64 145.36 108.155 145.36 108.825V108.874C145.36 109.496 145.603 109.97 146.09 110.296C146.576 110.623 147.173 110.786 147.883 110.786C148.376 110.786 148.834 110.721 149.254 110.59C149.675 110.46 150.04 110.275 150.355 110.037C150.667 109.802 150.911 109.515 151.084 109.179C151.256 108.844 151.343 108.472 151.343 108.063V107.256H151.343Z" fill="black"/>
<path d="M166.867 112.749V110.591C166.39 111.261 165.794 111.833 165.078 112.308C164.363 112.782 163.48 113.018 162.427 113.018C161.654 113.018 160.907 112.872 160.183 112.576C159.459 112.283 158.819 111.846 158.259 111.264C157.7 110.684 157.248 109.977 156.903 109.143C156.557 108.308 156.385 107.352 156.385 106.273C156.385 105.194 156.553 104.237 156.89 103.404C157.226 102.569 157.675 101.862 158.235 101.281C158.794 100.702 159.439 100.264 160.171 99.9692C160.903 99.6747 161.654 99.527 162.427 99.527C163.496 99.527 164.384 99.7559 165.091 100.214C165.799 100.671 166.39 101.202 166.867 101.809V94.8428H169.883V112.747H166.867V112.749ZM166.608 104.557C166.403 104.051 166.128 103.613 165.783 103.244C165.438 102.876 165.035 102.595 164.576 102.399C164.115 102.202 163.639 102.104 163.146 102.104C162.637 102.104 162.157 102.198 161.705 102.386C161.252 102.575 160.854 102.848 160.51 103.208C160.166 103.568 159.894 104.005 159.696 104.52C159.499 105.036 159.401 105.62 159.401 106.274C159.401 106.911 159.499 107.488 159.696 108.003C159.894 108.517 160.165 108.956 160.51 109.316C160.854 109.675 161.253 109.953 161.705 110.15C162.157 110.346 162.637 110.444 163.146 110.444C163.638 110.444 164.114 110.346 164.576 110.15C165.034 109.953 165.438 109.671 165.783 109.304C166.128 108.936 166.403 108.499 166.608 107.991C166.813 107.484 166.916 106.912 166.916 106.274C166.916 105.637 166.814 105.065 166.608 104.557Z" fill="black"/>
<path d="M187.634 112.749V110.591C187.156 111.261 186.561 111.833 185.845 112.308C185.129 112.782 184.246 113.018 183.194 113.018C182.421 113.018 181.673 112.872 180.95 112.576C180.226 112.283 179.585 111.846 179.026 111.264C178.467 110.684 178.015 109.977 177.669 109.143C177.324 108.308 177.151 107.352 177.151 106.273C177.151 105.194 177.319 104.237 177.657 103.404C177.994 102.569 178.442 101.862 179.002 101.281C179.56 100.702 180.206 100.264 180.938 99.9692C181.67 99.6747 182.421 99.527 183.194 99.527C184.263 99.527 185.151 99.7559 185.857 100.214C186.565 100.671 187.156 101.202 187.634 101.809V94.8428H190.649V112.747H187.634V112.749ZM187.375 104.557C187.169 104.051 186.893 103.613 186.549 103.244C186.205 102.876 185.803 102.595 185.342 102.399C184.882 102.202 184.406 102.104 183.912 102.104C183.404 102.104 182.922 102.198 182.471 102.386C182.018 102.575 181.621 102.848 181.276 103.208C180.932 103.568 180.66 104.005 180.463 104.52C180.265 105.036 180.167 105.62 180.167 106.274C180.167 106.911 180.265 107.488 180.463 108.003C180.66 108.517 180.932 108.956 181.276 109.316C181.621 109.675 182.019 109.953 182.471 110.15C182.923 110.346 183.404 110.444 183.912 110.444C184.406 110.444 184.881 110.346 185.342 110.15C185.802 109.953 186.204 109.671 186.549 109.304C186.894 108.936 187.169 108.499 187.375 107.991C187.579 107.484 187.683 106.912 187.683 106.274C187.683 105.637 187.579 105.065 187.375 104.557Z" fill="black"/>
<path d="M197.2 109.769C197.876 110.333 198.7 110.615 199.673 110.615C200.414 110.615 201.057 110.484 201.601 110.223C202.144 109.96 202.681 109.577 203.209 109.07L204.965 110.615C204.337 111.351 203.593 111.939 202.728 112.381C201.862 112.823 200.827 113.044 199.625 113.044C198.685 113.044 197.808 112.88 196.992 112.552C196.176 112.226 195.467 111.768 194.867 111.179C194.265 110.591 193.792 109.885 193.445 109.057C193.099 108.232 192.925 107.312 192.925 106.299C192.925 105.367 193.082 104.492 193.396 103.675C193.707 102.857 194.15 102.142 194.718 101.528C195.286 100.916 195.959 100.429 196.733 100.069C197.508 99.71 198.364 99.5295 199.303 99.5295C200.342 99.5295 201.252 99.7178 202.037 100.093C202.818 100.471 203.469 100.977 203.988 101.614C204.508 102.252 204.899 102.997 205.163 103.847C205.426 104.697 205.558 105.589 205.558 106.521C205.558 106.651 205.554 106.783 205.546 106.913C205.537 107.044 205.525 107.183 205.509 107.33H195.916C196.097 108.39 196.524 109.205 197.2 109.769ZM202.59 105.366C202.54 104.892 202.433 104.447 202.268 104.029C202.104 103.613 201.882 103.253 201.6 102.95C201.32 102.647 200.986 102.407 200.599 102.227C200.212 102.046 199.771 101.956 199.276 101.956C198.354 101.956 197.591 102.272 196.99 102.901C196.388 103.531 196.022 104.352 195.89 105.366H202.59Z" fill="black"/>
<path d="M26.8318 118.772H31.1004L21.7597 141.226H18.2937L8.95215 118.772H13.3182L20.0911 135.907L26.8318 118.772Z" fill="black"/>
<path d="M33.6377 121.67V118.007H37.8428V121.67H33.6377ZM33.7979 141.066V124.249H37.7148V141.066H33.7979Z" fill="black"/>
<path d="M42.6895 141.066V117.816H46.6064V141.066H42.6895Z" fill="black"/>
<path d="M51.582 141.066V117.816H55.4981V141.066H51.582Z" fill="black"/>
<path d="M70.6165 141.066V138.996C70.0385 139.676 69.2995 140.25 68.4012 140.716C67.5029 141.183 66.4114 141.416 65.1266 141.416C64.3128 141.416 63.5433 141.305 62.8165 141.082C62.0888 140.859 61.4525 140.53 60.9067 140.095C60.361 139.659 59.9214 139.118 59.5898 138.47C59.2581 137.822 59.0928 137.075 59.0928 136.225V136.161C59.0928 135.248 59.2634 134.452 59.6063 133.772C59.9493 133.092 60.4254 132.53 61.0356 132.085C61.6449 131.637 62.3726 131.304 63.2178 131.08C64.0638 130.857 64.9778 130.746 65.9631 130.746C66.9894 130.746 67.8615 130.81 68.5788 130.939C69.2951 131.065 69.9854 131.236 70.6495 131.448V131.034C70.6495 129.866 70.2909 128.974 69.5745 128.358C68.8573 127.742 67.825 127.435 66.4758 127.435C65.5131 127.435 64.6566 127.53 63.9089 127.722C63.1594 127.913 62.4004 128.167 61.6292 128.486L60.5699 125.397C61.5108 124.973 62.4744 124.632 63.4589 124.378C64.4433 124.122 65.6306 123.995 67.0216 123.995C69.5467 123.995 71.4199 124.617 72.6393 125.859C73.8588 127.101 74.4699 128.848 74.4699 131.098V141.066H70.6165ZM70.7131 133.931C70.2204 133.74 69.6372 133.582 68.9626 133.453C68.2889 133.327 67.5769 133.263 66.8283 133.263C65.6088 133.263 64.6557 133.497 63.9715 133.964C63.2865 134.43 62.9444 135.1 62.9444 135.97V136.033C62.9444 136.841 63.2595 137.455 63.8915 137.88C64.5217 138.305 65.2972 138.518 66.2182 138.518C66.8605 138.518 67.4542 138.432 67.9999 138.262C68.5457 138.094 69.0218 137.854 69.4292 137.546C69.8357 137.239 70.1508 136.867 70.3762 136.431C70.6008 135.997 70.7139 135.513 70.7139 134.983L70.7131 133.931Z" fill="black"/>
<path d="M109.255 141.066H105.083L102.804 135.684H92.1782L89.8663 141.066H85.8223L95.7078 118.612H99.368L109.255 141.066ZM97.4739 123.295L93.6214 132.212H101.358L97.4739 123.295Z" fill="black"/>
<path d="M112.593 141.066V117.816H116.51V141.066H112.593Z" fill="black"/>
<path d="M121.485 141.066V117.816H125.401V141.066H121.485Z" fill="black"/>
<path d="M134.775 137.197C135.652 137.929 136.722 138.295 137.985 138.295C138.947 138.295 139.782 138.125 140.489 137.785C141.195 137.446 141.89 136.947 142.575 136.289L144.854 138.295C144.04 139.251 143.072 140.015 141.949 140.588C140.825 141.161 139.482 141.449 137.92 141.449C136.7 141.449 135.561 141.235 134.502 140.811C133.441 140.386 132.521 139.791 131.741 139.027C130.959 138.263 130.344 137.346 129.894 136.273C129.445 135.202 129.221 134.008 129.221 132.691C129.221 131.481 129.424 130.344 129.831 129.283C130.237 128.221 130.81 127.293 131.548 126.496C132.287 125.699 133.159 125.068 134.165 124.601C135.17 124.134 136.283 123.9 137.503 123.9C138.852 123.9 140.033 124.145 141.05 124.633C142.066 125.121 142.912 125.779 143.586 126.607C144.26 127.436 144.768 128.402 145.111 129.506C145.453 130.609 145.624 131.767 145.624 132.977C145.624 133.148 145.619 133.318 145.608 133.487C145.597 133.657 145.581 133.837 145.56 134.028H133.104C133.341 135.407 133.897 136.464 134.775 137.197ZM141.773 131.479C141.71 130.862 141.57 130.284 141.355 129.743C141.142 129.201 140.853 128.734 140.49 128.341C140.126 127.949 139.692 127.636 139.19 127.402C138.686 127.168 138.115 127.052 137.472 127.052C136.273 127.052 135.283 127.461 134.503 128.278C133.722 129.095 133.246 130.163 133.074 131.479H141.773Z" fill="black"/>
<path d="M153.169 141.066H149.252V124.249H153.169V126.887C153.446 126.481 153.75 126.101 154.082 125.747C154.412 125.394 154.796 125.079 155.233 124.799C155.671 124.521 156.152 124.302 156.673 124.141C157.197 123.979 157.788 123.899 158.45 123.899C160.371 123.899 161.853 124.484 162.899 125.651C163.944 126.817 164.468 128.39 164.468 130.364V141.066H160.551V131.534C160.551 130.221 160.239 129.209 159.613 128.499C158.987 127.789 158.102 127.435 156.955 127.435C155.831 127.435 154.919 127.8 154.219 128.532C153.517 129.263 153.168 130.285 153.168 131.597L153.169 141.066Z" fill="black"/>
<path d="M181.609 141.066V138.263C180.99 139.135 180.217 139.877 179.287 140.493C178.359 141.109 177.212 141.415 175.845 141.415C174.842 141.415 173.869 141.225 172.93 140.844C171.991 140.461 171.158 139.893 170.432 139.139C169.707 138.386 169.12 137.466 168.672 136.384C168.224 135.302 168 134.06 168 132.658C168 131.257 168.218 130.015 168.656 128.933C169.093 127.85 169.676 126.931 170.402 126.178C171.127 125.425 171.966 124.856 172.916 124.473C173.866 124.092 174.843 123.9 175.846 123.9C177.234 123.9 178.386 124.198 179.304 124.792C180.224 125.387 180.991 126.077 181.61 126.862V117.817H185.526V141.066H181.609ZM181.273 130.429C181.007 129.77 180.649 129.202 180.202 128.724C179.754 128.247 179.232 127.88 178.634 127.627C178.037 127.371 177.419 127.244 176.779 127.244C176.117 127.244 175.493 127.368 174.907 127.61C174.32 127.855 173.803 128.211 173.356 128.678C172.908 129.145 172.556 129.712 172.3 130.382C172.044 131.051 171.916 131.809 171.916 132.659C171.916 133.487 172.044 134.235 172.3 134.905C172.556 135.574 172.908 136.143 173.356 136.609C173.804 137.076 174.32 137.437 174.907 137.693C175.494 137.948 176.118 138.074 176.779 138.074C177.418 138.074 178.037 137.948 178.634 137.693C179.232 137.437 179.754 137.07 180.202 136.594C180.65 136.115 181.008 135.548 181.273 134.89C181.541 134.232 181.674 133.488 181.674 132.66C181.674 131.832 181.541 131.086 181.273 130.429Z" fill="black"/>
<path d="M194.706 137.197C195.584 137.929 196.653 138.295 197.917 138.295C198.878 138.295 199.713 138.125 200.42 137.785C201.127 137.446 201.821 136.947 202.506 136.289L204.785 138.295C203.971 139.251 203.004 140.015 201.881 140.588C200.757 141.161 199.413 141.449 197.85 141.449C196.632 141.449 195.492 141.235 194.432 140.811C193.373 140.386 192.454 139.791 191.671 139.027C190.89 138.263 190.275 137.346 189.826 136.273C189.376 135.202 189.151 134.008 189.151 132.691C189.151 131.481 189.355 130.344 189.762 129.283C190.169 128.221 190.741 127.293 191.48 126.496C192.218 125.699 193.09 125.068 194.096 124.601C195.101 124.134 196.215 123.9 197.434 123.9C198.783 123.9 199.964 124.145 200.981 124.633C201.997 125.121 202.843 125.779 203.517 126.607C204.191 127.436 204.698 128.402 205.042 129.506C205.384 130.609 205.556 131.767 205.556 132.977C205.556 133.148 205.55 133.318 205.54 133.487C205.528 133.657 205.512 133.837 205.491 134.028H193.035C193.272 135.407 193.828 136.464 194.706 137.197ZM201.705 131.479C201.64 130.862 201.502 130.284 201.287 129.743C201.074 129.201 200.785 128.734 200.421 128.341C200.057 127.949 199.624 127.636 199.12 127.402C198.617 127.168 198.045 127.052 197.403 127.052C196.204 127.052 195.215 127.461 194.434 128.278C193.653 129.095 193.177 130.163 193.005 131.479H201.705Z" fill="black"/>
</g>
</svg>
